<?xml version="1.0" encoding="UTF-8" standalone="no"?>
<svg
   viewBox="0 0 755.90668 755.90668"
   height="755.90668"
   width="755.90668"
   xml:space="preserve"
   id="svg2"
   version="1.1"
   sodipodi:docname="MVLogoTransparent.svg"
   inkscape:version="1.2.1 (9c6d41e, 2022-07-14)"
   xmlns:inkscape="http://www.inkscape.org/namespaces/inkscape"
   xmlns:sodipodi="http://sodipodi.sourceforge.net/DTD/sodipodi-0.dtd"
   xmlns="http://www.w3.org/2000/svg"
   xmlns:svg="http://www.w3.org/2000/svg"
   xmlns:rdf="http://www.w3.org/1999/02/22-rdf-syntax-ns#"
   xmlns:cc="http://creativecommons.org/ns#"
   xmlns:dc="http://purl.org/dc/elements/1.1/"><sodipodi:namedview
     id="namedview3661"
     pagecolor="#ffffff"
     bordercolor="#000000"
     borderopacity="0.25"
     inkscape:showpageshadow="2"
     inkscape:pageopacity="0.0"
     inkscape:pagecheckerboard="0"
     inkscape:deskcolor="#d1d1d1"
     showgrid="false"
     inkscape:zoom="0.96823901"
     inkscape:cx="389.88307"
     inkscape:cy="413.63754"
     inkscape:window-width="1512"
     inkscape:window-height="945"
     inkscape:window-x="0"
     inkscape:window-y="37"
     inkscape:window-maximized="0"
     inkscape:current-layer="svg2" /><metadata
     id="metadata8"><rdf:RDF><cc:Work
         rdf:about=""><dc:format>image/svg+xml</dc:format><dc:type
           rdf:resource="http://purl.org/dc/dcmitype/StillImage" /></cc:Work></rdf:RDF></metadata><defs
     id="defs6">


















</defs><path
     id="path4087"
     style="fill:none;stroke:#ffffff;stroke-width:4;stroke-linecap:round;stroke-linejoin:round;stroke-miterlimit:4;stroke-dasharray:none;stroke-opacity:1"
     d="m 379.70666,246.69468 c 0,-4.16666 0,-13.808 -0.003,-16.788 -2.228,-2.10133 -3.488,-4.98266 -3.488,-8.04666 0,-6.04934 4.92133,-10.972 10.972,-10.972 6.04933,0 10.97067,4.92266 10.97067,10.972 0,3.24 -2.876,6.88133 -4.23067,8.416 -0.004,5.46666 -0.009,10.93333 -0.0147,16.4 1.02267,0.004 2.04534,0.008 3.06667,0.012 1.016,-6.10267 5.55733,-25.368 22.43867,-26.07067 9.39333,-10e-4 16.16533,2.45333 20.21466,7.296 5.10134,6.10133 3.816,13.636 3.75867,13.95467 -0.112,0.62 -0.51067,1.15066 -1.07467,1.43333 -0.56266,0.28133 -1.228,0.28133 -1.792,-0.001 -0.0987,-0.0493 -9.9,-4.86667 -16.03066,-0.196 -6.73734,5.13333 -4.66267,13.42 -4.57067,13.76933 0.028,0.032 10.18267,25.59733 15.404,37.90533 5.49733,12.96 8.24667,38.90933 0.232,51.732 -6.44,10.304 -28.16533,17 -36.71867,19.292 8.86934,8.87067 17.74,17.74133 26.61067,26.61067 0.572,0.572 0.74267,1.43333 0.43333,2.18 -0.30933,0.748 -1.03866,1.23466 -1.848,1.23466 H 372.3903 324.28363 c -0.80933,0 -1.53866,-0.48666 -1.848,-1.23466 -0.30933,-0.74667 -0.13866,-1.608 0.43334,-2.18 8.87066,-8.86934 17.74133,-17.74 26.61066,-26.61067 -8.55333,-2.29333 -30.27866,-8.988 -36.71866,-19.292 -8.01467,-12.82267 -5.26534,-38.772 0.232,-51.732 5.22133,-12.308 15.376,-37.87333 15.47866,-38.12933 0.0173,-0.12533 2.092,-8.412 -4.64533,-13.54533 -6.16,-4.69467 -15.93067,0.14533 -16.028,0.19466 -0.564,0.284 -1.22933,0.28667 -1.79333,0.004 -0.56534,-0.28133 -0.964,-0.81333 -1.076,-1.43466 -0.0573,-0.31867 -1.34267,-7.85334 3.75866,-13.95467 4.04934,-4.84267 10.82134,-7.29733 20.13067,-7.29733 16.95333,0.704 21.504,19.96933 22.52266,26.072 1.02134,-0.004 2.044,-0.008 3.06667,-0.012 l -0.0147,-16.4 c -1.35466,-1.53467 -4.23066,-5.176 -4.23066,-8.416 0,-6.04934 4.92133,-10.972 10.97066,-10.972 6.05067,0 10.972,4.92266 10.972,10.972 0,3.07066 -1.26533,5.95733 -3.50133,8.06 0.008,2.624 0.009,12.532 0.0107,16.77466 h 5.54533 c 1.84933,0 3.69867,0 5.54667,0 z" /><path
     id="path136"
     style="fill:#000000;fill-opacity:1;fill-rule:nonzero;stroke:none;stroke-width:0.133333"
     d="M 361.13281 210.88867 C 355.83968 210.88867 351.40946 214.65583 350.38477 219.65039 C 350.38464 219.65101 350.38489 219.65173 350.38477 219.65234 C 350.23863 220.36527 350.16211 221.10387 350.16211 221.85938 C 350.16211 222.26437 350.20778 222.67525 350.28906 223.08789 C 350.28919 223.08854 350.28893 223.0892 350.28906 223.08984 C 350.45172 223.91453 350.75823 224.74452 351.14258 225.54102 C 351.14295 225.54179 351.14416 225.5422 351.14453 225.54297 C 352.10611 227.5347 353.54625 229.31661 354.39258 230.27539 L 354.4082 246.67578 C 353.38553 246.67978 352.36314 246.6835 351.3418 246.6875 C 350.83247 243.63617 349.43885 237.29411 346.05469 231.62695 C 343.93946 228.08524 341.04747 224.80818 337.10547 222.76172 C 335.52867 221.94313 333.78323 221.32149 331.85352 220.95898 C 330.88866 220.77773 329.87794 220.66119 328.81836 220.61719 C 326.49104 220.61719 324.32174 220.77042 322.31445 221.07617 C 318.29988 221.68767 314.932 222.90831 312.23242 224.73047 C 311.55753 225.18601 310.92488 225.68037 310.33398 226.21094 C 309.74309 226.7415 309.19367 227.30873 308.6875 227.91406 C 307.41218 229.43939 306.53535 231.05366 305.93945 232.62305 C 305.64147 233.40772 305.41495 234.18078 305.24219 234.92578 C 305.24205 234.92636 305.24232 234.92716 305.24219 234.92773 C 304.89675 236.41779 304.77107 237.79324 304.74805 238.92188 C 304.71351 240.61483 304.9082 241.74964 304.92969 241.86914 C 305.04169 242.49047 305.44052 243.0214 306.00586 243.30273 C 306.56986 243.5854 307.23483 243.58283 307.79883 243.29883 C 307.82314 243.28651 308.45248 242.97475 309.47656 242.58789 C 309.60596 242.53904 309.79198 242.4844 309.93359 242.43359 C 310.9149 242.08138 312.12944 241.69705 313.53906 241.42188 C 315.1514 241.10713 316.95262 240.94088 318.73633 241.14648 C 320.07411 241.30069 321.40294 241.66477 322.63281 242.33203 C 323.04277 242.55445 323.44117 242.8101 323.82617 243.10352 C 324.24768 243.42467 324.6331 243.75848 324.98828 244.10156 C 326.40722 245.47216 327.31999 246.99455 327.89258 248.49414 C 327.89279 248.49468 327.89237 248.49555 327.89258 248.49609 C 328.60794 250.37044 328.79522 252.20759 328.78516 253.66211 C 328.77322 255.40781 328.47719 256.60339 328.4707 256.65039 C 328.40111 256.82394 323.69691 268.64902 319.05664 280.07031 C 318.56341 281.28432 318.08612 282.47318 317.59961 283.66406 C 315.91153 287.7962 314.29769 291.70189 312.99219 294.7793 C 312.30502 296.39929 311.66176 298.22235 311.07617 300.19727 C 310.49054 302.17217 309.96256 304.29954 309.50977 306.52734 C 309.28341 307.64125 309.07594 308.77949 308.88867 309.9375 C 308.70136 311.0955 308.53494 312.2716 308.39062 313.46094 C 308.10195 315.84026 307.90364 318.26904 307.81055 320.69727 C 307.76396 321.91104 307.7438 323.12322 307.75195 324.33008 C 307.79282 330.36512 308.54107 336.23304 310.24414 341.13867 C 310.5847 342.11969 310.96403 343.06139 311.38281 343.95898 C 311.8018 344.85717 312.26051 345.70983 312.76172 346.51172 C 313.16422 347.15572 313.62566 347.78479 314.14062 348.40039 C 314.65559 349.01599 315.22435 349.61826 315.83789 350.20508 C 316.45143 350.79189 317.11037 351.36423 317.80859 351.92188 C 318.50681 352.47954 319.24271 353.02267 320.01172 353.55078 C 320.78113 354.07919 321.58183 354.59141 322.4082 355.08984 C 323.2341 355.58802 324.08424 356.07121 324.95312 356.53906 C 325.8225 357.00717 326.70891 357.45912 327.60742 357.89648 C 330.30137 359.2079 333.09506 360.38015 335.80078 361.4082 C 337.60459 362.09357 339.36897 362.71397 341.03906 363.26953 C 344.37993 364.38083 347.34179 365.22932 349.48047 365.80273 C 340.61118 374.6734 331.73976 383.54476 322.86914 392.41406 C 322.58314 392.70006 322.39783 393.05741 322.32227 393.4375 C 322.28452 393.62758 322.27441 393.82289 322.29297 394.01758 C 322.31138 394.21289 322.35796 394.40646 322.43555 394.59375 C 322.74489 395.34175 323.47387 395.82812 324.2832 395.82812 L 372.39062 395.82812 L 424.03711 395.82812 C 424.84645 395.82812 425.57544 395.34175 425.88477 394.59375 C 425.9621 394.40708 426.00878 394.21227 426.02734 394.01758 C 426.04563 393.82357 426.0357 393.62691 425.99805 393.4375 C 425.92255 393.05733 425.73717 392.70006 425.45117 392.41406 C 416.58051 383.54473 407.71113 374.6734 398.8418 365.80273 C 400.98013 365.22973 403.94107 364.38255 407.28125 363.27148 C 408.95079 362.71618 410.71634 362.09326 412.51953 361.4082 C 419.73478 358.66667 427.57604 354.89985 432.48438 350.20508 C 433.71146 349.03138 434.75555 347.79972 435.56055 346.51172 C 436.56238 344.90889 437.39506 343.1007 438.07617 341.13867 C 438.75727 339.17663 439.28605 337.06103 439.67773 334.8418 C 441.04871 327.07454 440.74284 318.04347 439.43164 309.9375 C 439.05699 307.62149 438.60127 305.3817 438.07812 303.26758 C 437.555 301.15347 436.96453 299.16567 436.32422 297.35547 C 436.00406 296.45037 435.67171 295.58929 435.32812 294.7793 C 430.10683 282.47134 419.95183 256.90505 419.92383 256.87305 C 419.86634 256.65475 419.03447 253.33596 420.0625 249.625 C 420.06266 249.62442 420.06234 249.62363 420.0625 249.62305 C 420.16539 249.25187 420.28695 248.87828 420.42969 248.50195 C 420.71498 247.7498 421.08643 246.99223 421.5625 246.25195 C 421.56278 246.25152 421.56222 246.25043 421.5625 246.25 C 421.80049 245.88006 422.06585 245.51512 422.35938 245.15625 C 422.35967 245.15589 422.35908 245.15466 422.35938 245.1543 C 422.65301 244.79538 422.97758 244.444 423.33203 244.10156 C 423.68719 243.75844 424.07264 243.42467 424.49414 243.10352 C 425.26047 242.51968 426.08452 242.08467 426.93945 241.76953 C 428.22185 241.29682 429.57338 241.09512 430.9082 241.07031 C 432.24303 241.04551 433.56056 241.19652 434.77148 241.43164 C 435.57877 241.58839 436.33848 241.78173 437.02539 241.98438 C 437.71227 242.18695 438.32557 242.39901 438.83984 242.5918 C 439.86933 242.97776 440.5007 243.28845 440.52539 243.30078 C 441.08939 243.58311 441.75375 243.58211 442.31641 243.30078 C 442.88041 243.01811 443.28058 242.48719 443.39258 241.86719 C 443.40689 241.78763 443.49808 241.25653 443.54688 240.41211 C 443.54691 240.41155 443.54684 240.41071 443.54688 240.41016 C 443.69313 237.87103 443.45881 232.49006 439.63281 227.91406 C 439.12665 227.30873 438.57738 226.74153 437.98633 226.21094 C 437.39565 225.68069 436.76295 225.1858 436.08789 224.73047 C 436.08743 224.73016 436.0864 224.73078 436.08594 224.73047 C 432.03264 221.997 426.46294 220.61644 419.41797 220.61719 C 409.92226 221.01244 404.33152 227.27998 401.07617 233.77539 C 401.07592 233.7759 401.07643 233.77684 401.07617 233.77734 C 400.71478 234.49852 400.38213 235.22237 400.07617 235.94141 C 400.07584 235.94219 400.07455 235.94258 400.07422 235.94336 C 398.23777 240.25992 397.3614 244.39943 396.98047 246.6875 C 395.95914 246.6835 394.93478 246.67978 393.91211 246.67578 C 393.91781 241.20915 393.92373 235.74205 393.92773 230.27539 C 394.77418 229.31647 396.21615 227.53504 397.17773 225.54297 C 397.178 225.54242 397.17747 225.54156 397.17773 225.54102 C 397.56209 224.74452 397.86859 223.91453 398.03125 223.08984 C 398.03138 223.0892 398.03112 223.08854 398.03125 223.08789 C 398.11253 222.67525 398.1582 222.26437 398.1582 221.85938 C 398.1582 221.10255 398.08218 220.36451 397.93555 219.65039 C 397.49639 217.50986 396.43129 215.59535 394.94141 214.10547 C 393.94815 213.11221 392.76519 212.30785 391.45312 211.75195 C 390.14106 211.19605 388.69982 210.88867 387.1875 210.88867 C 386.43117 210.88867 385.69217 210.96494 384.97852 211.11133 C 384.26488 211.25775 383.57605 211.47394 382.91992 211.75195 C 381.90461 212.18204 381.00043 212.80008 380.16797 213.5 C 379.92485 213.70441 379.65809 213.88107 379.43359 214.10547 C 378.93693 214.60218 378.48652 215.14665 378.0918 215.73047 C 376.90764 217.48191 376.21484 219.59087 376.21484 221.85938 C 376.21484 222.24237 376.23462 222.62192 376.27344 222.99805 C 376.2735 222.99869 376.27337 222.99936 376.27344 223 C 376.31225 223.37547 376.37091 223.74698 376.44727 224.11328 C 376.48415 224.29042 376.56586 224.45236 376.61133 224.62695 C 376.94274 225.8996 377.45965 227.11392 378.21875 228.19336 C 378.65021 228.80688 379.14613 229.38092 379.70312 229.90625 C 379.70612 232.88625 379.70703 242.52866 379.70703 246.69531 L 374.16016 246.69531 L 368.61523 246.69531 C 368.61353 242.45269 368.61152 232.54392 368.60352 229.91992 C 369.72108 228.86899 370.59738 227.62177 371.19336 226.25391 C 371.19361 226.25334 371.19311 226.25252 371.19336 226.25195 C 371.78935 224.88348 372.10547 223.39469 372.10547 221.85938 C 372.10547 220.34704 371.7981 218.90594 371.24219 217.59375 C 369.57425 213.65755 365.67081 210.88867 361.13281 210.88867 z M 345.82617 266.08008 L 356.39258 266.08008 L 356.41016 345.07227 C 356.41016 345.07227 337.51189 346.96077 329.19727 333.35547 C 320.88127 319.74885 332.97656 295.56055 332.97656 295.56055 L 345.82617 266.08008 z M 366.63281 266.08008 L 374.16016 266.08008 L 381.6875 266.08008 L 381.70703 344.88281 L 366.61523 344.88281 L 366.63281 266.08008 z M 391.92969 266.08008 L 402.49414 266.08008 L 415.3457 295.56055 C 415.3457 295.56055 427.43903 319.74883 419.12305 333.35547 C 410.8084 346.96079 391.91211 345.07227 391.91211 345.07227 L 391.92969 266.08008 z " /><text
     id="text46"
     style="font-variant:normal;font-weight:bold;font-size:65.3333px;font-family:Calibri;-inkscape-font-specification:Calibri-Bold;writing-mode:lr-tb;fill:#231f20;fill-opacity:1;fill-rule:nonzero;stroke:none;stroke-width:1.33333"
     transform="rotate(122.86136)"
     x="81.579964"
     y="-346.15408"><tspan
       id="tspan44"
       y="-346.15408"
       x="81.579964"
       style="stroke-width:1.33333">M</tspan></text><text
     id="text50"
     style="font-variant:normal;font-weight:bold;font-size:65.3333px;font-family:Calibri;-inkscape-font-specification:Calibri-Bold;writing-mode:lr-tb;fill:#231f20;fill-opacity:1;fill-rule:nonzero;stroke:none;stroke-width:1.33333"
     transform="rotate(102.4573)"
     x="261.10617"
     y="-273.54239"><tspan
       id="tspan48"
       y="-273.54239"
       x="261.10617"
       style="stroke-width:1.33333">U</tspan></text><text
     id="text54"
     style="font-variant:normal;font-weight:bold;font-size:65.3334px;font-family:Calibri;-inkscape-font-specification:Calibri-Bold;writing-mode:lr-tb;fill:#231f20;fill-opacity:1;fill-rule:nonzero;stroke:none;stroke-width:1.33333"
     transform="rotate(86.911679)"
     x="376.1102"
     y="-179.92091"><tspan
       id="tspan52"
       y="-179.92091"
       x="376.1102"
       style="stroke-width:1.33333">S</tspan></text><text
     id="text58"
     style="font-variant:normal;font-weight:bold;font-size:65.3333px;font-family:Calibri;-inkscape-font-specification:Calibri-Bold;writing-mode:lr-tb;fill:#231f20;fill-opacity:1;fill-rule:nonzero;stroke:none;stroke-width:1.33333"
     transform="rotate(76.076622)"
     x="444.01273"
     y="-98.849525"><tspan
       id="tspan56"
       y="-98.849525"
       x="444.01273"
       style="stroke-width:1.33333">I</tspan></text><text
     id="text62"
     style="font-variant:normal;font-weight:bold;font-size:65.3333px;font-family:Calibri;-inkscape-font-specification:Calibri-Bold;writing-mode:lr-tb;fill:#231f20;fill-opacity:1;fill-rule:nonzero;stroke:none;stroke-width:1.33333"
     transform="rotate(63.32136)"
     x="482.00955"
     y="8.731761"><tspan
       id="tspan60"
       y="8.731761"
       x="482.00955"
       style="stroke-width:1.33333">K</tspan></text><text
     id="text66"
     style="font-variant:normal;font-weight:bold;font-size:65.3333px;font-family:Calibri;-inkscape-font-specification:Calibri-Bold;writing-mode:lr-tb;fill:#231f20;fill-opacity:1;fill-rule:nonzero;stroke:none;stroke-width:1.33333"
     transform="matrix(0.67633871,0.73658976,-0.73659177,0.67633871,0,0)"
     x="507.26349"
     y="153.29242"><tspan
       id="tspan64"
       y="153.29242"
       x="507.26349"
       style="stroke-width:1.33333">V</tspan></text><path
     id="path18"
     style="fill:#000000;fill-opacity:1;fill-rule:nonzero;stroke:none;stroke-width:0.133333"
     d="M 566.92969 129.76562 L 437.57812 301.42969 C 438.5338 304.89133 439.31124 308.74416 439.83203 312.77539 C 440.07823 314.68107 440.25921 316.61817 440.38281 318.56836 C 440.39663 318.78421 440.40968 318.99686 440.42188 319.21289 C 440.52806 321.1126 440.57767 323.01177 440.55078 324.89844 C 440.54848 325.06735 440.53859 325.2318 440.53516 325.40039 C 440.49673 327.2334 440.39664 329.04569 440.2168 330.81641 C 440.2041 330.94197 440.19899 331.07018 440.18555 331.19531 C 439.99752 332.9383 439.71736 334.62059 439.37695 336.25586 C 439.3122 336.56741 439.24832 336.87688 439.17773 337.18359 C 438.81586 338.75445 438.37936 340.25827 437.85742 341.67773 C 437.76037 341.94179 437.65169 342.18927 437.54883 342.44727 C 436.9707 343.89722 436.33002 345.28064 435.56055 346.51172 C 434.75555 347.79972 433.71145 349.03138 432.48438 350.20508 C 431.25729 351.37877 429.8466 352.4945 428.30859 353.55078 C 426.77059 354.60706 425.10496 355.60331 423.36719 356.53906 C 421.64257 357.46774 419.8455 358.33566 418.0332 359.14258 C 418.0102 359.15282 417.98785 359.16361 417.96484 359.17383 C 414.32096 360.79274 410.61304 362.16323 407.28125 363.27148 C 403.94107 364.38255 400.98012 365.22973 398.8418 365.80273 C 407.71111 374.6734 416.58053 383.54475 425.45117 392.41406 C 425.73717 392.70006 425.92255 393.05733 425.99805 393.4375 C 426.07355 393.81767 426.03944 394.22042 425.88477 394.59375 C 425.7301 394.96775 425.4706 395.27702 425.14844 395.49219 C 424.82627 395.70735 424.44178 395.82813 424.03711 395.82812 L 372.39062 395.82812 L 366.45117 395.82812 L 298.41016 486.12891 L 309.28711 493.02734 C 309.44874 493.12987 309.56405 493.26601 309.63281 493.43555 C 309.70157 493.60508 309.70673 493.83457 309.64844 494.125 C 309.60154 494.39747 309.48293 494.72545 309.29102 495.10742 C 309.12846 495.48282 308.8769 495.93974 308.53516 496.47852 C 308.2162 496.98138 307.91452 497.39569 307.63281 497.7207 C 307.38046 498.03915 307.14056 498.27699 306.91406 498.43555 C 306.68757 498.5941 306.47922 498.68878 306.28516 498.7168 C 306.10248 498.72685 305.92921 498.68065 305.76758 498.57812 L 294.44141 491.39453 L 288.35547 499.4707 L 298.45508 505.87695 C 298.61671 505.97948 298.72584 506.125 298.7832 506.3125 C 298.86992 506.49343 298.89065 506.71972 298.84375 506.99219 C 298.80824 507.2467 298.69386 507.5653 298.50195 507.94727 C 298.33939 508.32267 298.10021 508.76081 297.78125 509.26367 C 297.4509 509.78449 297.14922 510.19881 296.87891 510.50586 C 296.62655 510.8243 296.38665 511.06215 296.16016 511.2207 C 295.94505 511.3613 295.73774 511.43102 295.53711 511.42969 C 295.35444 511.43974 295.18312 511.39354 295.02148 511.29102 L 284.48828 504.61133 L 278.25195 514.44336 L 290.80469 522.40625 C 290.96632 522.50877 291.07545 522.6543 291.13281 522.8418 C 291.21953 523.02272 291.24026 523.24902 291.19336 523.52148 C 291.14646 523.79395 291.02589 524.11998 290.83398 524.50195 C 290.67143 524.87735 290.42605 525.32684 290.0957 525.84766 C 289.76535 526.36848 289.45944 526.79022 289.17773 527.11523 C 288.92538 527.43368 288.68548 527.67348 288.45898 527.83203 C 288.23249 527.99059 288.0128 528.07713 287.80078 528.09375 C 287.61811 528.10381 287.44679 528.0576 287.28516 527.95508 L 273.48633 519.20508 L 228.03125 579.5293 C 348.21853 649.82755 367.37151 658.01634 375.93945 669.73242 C 382.48878 658.77261 410.96373 644.78994 531.15234 574.49023 C 635.4664 500.41205 620.92631 373.41925 620.57031 359.05664 C 610.96637 353.01004 572.72684 326.55128 571.21484 275.90625 C 569.7029 225.26122 619.59375 190.49023 619.59375 190.49023 C 619.59375 190.49023 587.22024 154.02017 566.92969 129.76562 z M 504.75 266.25977 C 504.96205 266.24343 505.22846 266.32063 505.54883 266.49219 C 505.83919 266.66179 506.18335 266.9257 506.58203 267.2832 C 506.98072 267.6407 507.45481 268.13055 508.00195 268.75391 C 508.53507 269.36128 508.95858 269.8939 509.27539 270.35156 C 509.57817 270.79324 509.79526 271.16861 509.92578 271.47852 C 510.04032 271.80245 510.0824 272.07666 510.05273 272.30078 C 510.00904 272.50892 509.90043 272.68943 509.72461 272.84375 L 481.60156 297.5293 C 480.89828 298.14659 480.23929 298.41321 479.62695 298.32812 C 478.98461 298.24109 478.43367 297.93371 477.9707 297.40625 L 465.1543 282.80469 C 465.02803 282.66084 464.96324 282.49098 464.96094 282.29492 C 464.94265 282.11289 465.00299 281.89121 465.14062 281.62891 C 465.24825 281.36465 465.45608 281.06877 465.76367 280.74219 C 466.05724 280.39962 466.44237 280.01854 466.92188 279.59766 C 467.40138 279.17677 467.83124 278.84237 468.20898 278.5957 C 468.55672 278.34708 468.86855 278.18573 469.14453 278.11328 C 469.40648 278.02485 469.63402 277.99573 469.82812 278.02344 C 470.02223 278.05115 470.18233 278.1374 470.30859 278.28125 L 479.21094 288.42188 L 487.55469 281.09766 L 479.19922 271.58008 C 479.07295 271.43623 479.00071 271.27383 478.98242 271.0918 C 478.96413 270.90976 479.01506 270.69358 479.13672 270.44531 C 479.24435 270.18106 479.44472 269.89263 479.73633 269.58008 C 480.01391 269.25154 480.39159 268.87791 480.87109 268.45703 C 481.3506 268.03615 481.77301 267.7092 482.13477 267.47656 C 482.4825 267.22794 482.80179 267.06109 483.09375 266.97461 C 483.37168 266.87215 483.60667 266.83362 483.80078 266.86133 C 483.97891 266.90307 484.13155 266.99677 484.25781 267.14062 L 492.61328 276.6582 L 504.16797 266.51562 C 504.34379 266.3613 504.53795 266.2761 504.75 266.25977 z M 516.15625 292.63672 C 517.70229 292.61933 519.18413 292.85743 520.60156 293.34961 C 522.49147 294.00585 524.24371 295.11511 525.85742 296.67773 C 527.47113 298.24036 528.90859 300.25067 530.16992 302.71094 C 531.35364 305.0198 532.13246 307.23842 532.50586 309.36523 C 532.86033 311.50175 532.77524 313.50546 532.25195 315.375 C 531.72867 317.24454 530.77268 318.96512 529.38086 320.53906 C 527.96041 322.10378 526.07523 323.48829 523.72852 324.69141 L 501.38867 336.14453 C 501.19942 336.24156 500.99868 336.27226 500.78906 336.23633 C 500.57945 336.2004 500.3554 336.06544 500.11523 335.83008 C 499.86537 335.57579 499.59036 335.22722 499.29102 334.7832 C 498.99168 334.33918 498.65379 333.74785 498.27539 333.00977 C 497.90669 332.29061 497.62915 331.67997 497.44336 331.17773 C 497.25757 330.6755 497.1388 330.25817 497.08789 329.92578 C 497.03698 329.59339 497.0572 329.3318 497.15039 329.14062 C 497.23387 328.93053 497.3713 328.77671 497.56055 328.67969 L 519.24805 317.56055 C 520.70528 316.81345 521.88101 315.98294 522.77539 315.07031 C 523.65085 314.16739 524.27022 313.20497 524.63086 312.18359 C 524.9818 311.14329 525.09827 310.06676 524.98242 308.95508 C 524.83795 307.83418 524.47076 306.6974 523.87891 305.54297 C 523.27735 304.36961 522.55766 303.41095 521.72266 302.66797 C 520.88765 301.92499 519.96627 301.40744 518.95508 301.11328 C 517.92496 300.82882 516.82026 300.77368 515.64258 300.94727 C 514.43627 301.11163 513.18925 301.52382 511.90234 302.18359 L 489.78906 313.51953 C 489.59981 313.61656 489.39907 313.64726 489.18945 313.61133 C 488.97984 313.5754 488.75579 313.44044 488.51562 313.20508 C 488.27546 312.96971 488.00637 312.62957 487.70703 312.18555 C 487.39799 311.7226 487.05815 311.13126 486.68945 310.41211 C 486.32076 309.69295 486.04913 309.09269 485.87305 308.60938 C 485.68726 308.10714 485.56849 307.68981 485.51758 307.35742 C 485.46667 307.02503 485.48689 306.76344 485.58008 306.57227 C 485.67326 306.38109 485.81465 306.2357 486.00391 306.13867 L 508.0332 294.8457 C 510.28529 293.6911 512.47129 292.98794 514.58984 292.73828 C 515.11948 292.67587 515.6409 292.64252 516.15625 292.63672 z M 540.11523 331.77148 C 540.29033 331.7814 540.44718 331.83279 540.58398 331.92578 C 540.83671 332.11576 541.04006 332.49919 541.19336 333.07617 C 541.36755 333.64917 541.55094 334.44704 541.74609 335.4707 C 541.94922 336.53615 542.08839 337.37643 542.16211 337.99023 C 542.25274 338.57917 542.28554 339.03789 542.26172 339.36719 C 542.21701 339.70047 542.1237 339.94631 541.98047 340.10352 C 541.83724 340.26072 541.63847 340.40763 541.38281 340.54297 L 533.75391 344.82227 L 536.6582 360.05078 L 545.07617 361.10938 C 545.38458 361.13718 545.65774 361.20414 545.89453 361.31055 C 546.10645 361.40005 546.30319 361.58944 546.48828 361.87891 C 546.6485 362.15147 546.80381 362.56695 546.95312 363.12305 C 547.09846 363.65825 547.25647 364.37317 547.42773 365.27148 C 547.61094 366.23247 547.72279 366.99176 547.76367 367.54688 C 547.80455 368.10199 547.73099 368.50509 547.54102 368.75781 C 547.33015 369.01452 546.99949 369.15286 546.54883 369.17383 C 546.09817 369.19479 545.48211 369.15036 544.70312 369.03906 L 506.3457 363.39453 C 505.96666 363.33689 505.65679 363.24449 505.41602 363.11719 C 505.15435 362.99387 504.93779 362.76492 504.76562 362.42969 C 504.56859 362.07755 504.39826 361.57919 504.25391 360.93555 C 504.08866 360.29589 503.90429 359.4424 503.70117 358.37695 C 503.46619 357.14438 503.29879 356.15907 503.20117 355.41992 C 503.08267 354.68475 503.04798 354.10637 503.09766 353.68555 C 503.12246 353.24781 503.23565 352.92383 503.43359 352.71289 C 503.62755 352.48106 503.91017 352.26547 504.2832 352.06445 L 537.83594 332.67773 C 538.54022 332.28366 539.10644 332.0135 539.5332 331.86719 C 539.74659 331.79403 539.94014 331.76156 540.11523 331.77148 z M 527.78906 347.93945 L 511.64648 356.96094 L 511.65234 356.99219 L 529.98047 359.44141 L 527.78906 347.93945 z M 542.27734 382.56445 C 542.54364 382.56783 542.83613 382.58037 543.1543 382.60352 C 543.79064 382.6498 544.32872 382.72233 544.76953 382.81836 C 545.19067 382.89164 545.54669 382.99148 545.83594 383.11914 C 546.10397 383.24525 546.29523 383.39722 546.41016 383.57617 C 546.52662 383.73391 546.57793 383.91875 546.5625 384.13086 L 545.18945 402.99805 C 545.13854 403.69802 544.89358 404.27778 544.45508 404.73633 C 543.99691 405.17212 543.30244 405.35695 542.36914 405.28906 L 504.98242 402.56836 C 504.77031 402.55293 504.58426 402.47555 504.42383 402.33594 C 504.26494 402.17512 504.14541 401.93331 504.0625 401.60742 C 503.97959 401.28154 503.92545 400.84936 503.90039 400.31445 C 503.87687 399.75833 503.8945 399.07751 503.95312 398.27148 C 504.0133 397.44424 504.09311 396.76784 504.19531 396.24219 C 504.29752 395.71653 504.41377 395.29874 504.54297 394.98828 C 504.67217 394.67783 504.82691 394.46453 505.00586 394.34961 C 505.18635 394.21347 505.38164 394.15449 505.59375 394.16992 L 538.71484 396.57812 L 539.6582 383.62891 C 539.67363 383.41679 539.7506 383.24078 539.88867 383.10156 C 540.00707 382.93959 540.20677 382.81647 540.49023 382.73047 C 540.75248 382.64293 541.10812 382.59401 541.55664 382.58398 C 541.77107 382.5676 542.01105 382.56108 542.27734 382.56445 z M 501.19922 413.95312 C 501.30128 413.94181 501.40311 413.95113 501.50586 413.97852 L 539.17383 424.01562 C 539.37933 424.07039 539.54581 424.19124 539.67188 424.37891 C 539.80342 424.54602 539.87979 424.79913 539.90039 425.13477 C 539.92099 425.4704 539.89362 425.90146 539.81836 426.43164 C 539.7431 426.96182 539.59835 427.62823 539.38477 428.42969 C 539.17666 429.21059 538.97162 429.86103 538.76758 430.37891 C 538.56902 430.87623 538.3763 431.26405 538.19141 431.54492 C 538.00651 431.82579 537.81211 432.01715 537.60938 432.11719 C 537.41212 432.19668 537.21136 432.20906 537.00586 432.1543 L 499.33789 422.11523 C 499.13239 422.06047 498.96357 421.95032 498.83203 421.7832 C 498.70597 421.59554 498.63193 421.33368 498.61133 420.99805 C 498.5962 420.64186 498.62591 420.19815 498.70117 419.66797 C 498.77643 419.13779 498.91885 418.48208 499.12695 417.70117 C 499.34053 416.89972 499.54753 416.25123 499.74609 415.75391 C 499.94465 415.25658 500.13542 414.86681 500.32031 414.58594 C 500.50521 414.30507 500.69727 414.12441 500.89453 414.04492 C 500.9959 413.9949 501.09716 413.96444 501.19922 413.95312 z M 490.92773 440.03516 C 491.10599 440.04039 491.29964 440.06215 491.50781 440.10156 L 529.78125 446.17773 C 530.57649 446.31525 531.18575 446.46203 531.60938 446.61719 C 532.033 446.77235 532.29135 447.00742 532.38672 447.32422 C 532.46335 447.63095 532.38107 448.05685 532.13672 448.60156 C 531.91111 449.15634 531.54982 449.89253 531.05664 450.81055 C 530.54333 451.76603 530.12232 452.50611 529.79297 453.0293 C 529.49242 453.54381 529.22982 453.92134 529.00391 454.16211 C 528.75926 454.39281 528.53253 454.5228 528.32227 454.55469 C 528.112 454.58658 527.86389 454.57543 527.58008 454.51953 L 518.96094 453.03906 L 511.62305 466.69727 L 517.49414 472.82031 C 517.71617 473.03616 517.88701 473.26039 518.00391 473.49219 C 518.11213 473.69518 518.14599 473.96718 518.10742 474.30859 C 518.06019 474.62121 517.91983 475.04043 517.68555 475.56641 C 517.46133 476.07365 517.13201 476.73151 516.69922 477.53711 C 516.23623 478.39892 515.84719 479.05676 515.5293 479.51367 C 515.21141 479.97059 514.89853 480.23782 514.5918 480.31445 C 514.26633 480.38102 513.92183 480.28124 513.55859 480.01367 C 513.19535 479.7461 512.74588 479.32318 512.21094 478.74609 L 485.97266 450.20117 C 485.71455 449.91766 485.53261 449.65092 485.42578 449.40039 C 485.30022 449.1398 485.27609 448.82585 485.35352 448.45703 C 485.42227 448.05941 485.60321 447.5635 485.89648 446.97266 C 486.17103 446.37174 486.56482 445.59415 487.07812 444.63867 C 487.67195 443.53331 488.16495 442.66294 488.55469 442.02734 C 488.92569 441.38168 489.26276 440.91081 489.56641 440.61523 C 489.86138 440.29086 490.15285 440.10948 490.43945 440.07031 C 490.58779 440.04136 490.74948 440.02993 490.92773 440.03516 z M 494.14258 448.54297 L 494.12891 448.57031 L 506.82227 462.01758 L 512.36328 451.70312 L 494.14258 448.54297 z M 474.47852 465.49609 C 474.77916 465.48739 475.00419 465.51063 475.15625 465.56641 C 475.32291 465.60671 475.51372 465.69952 475.72852 465.84375 C 475.94245 465.95791 476.19723 466.13749 476.49023 466.38477 C 476.76777 466.61744 477.10762 466.92322 477.50977 467.30273 C 477.95831 467.72604 478.32141 468.10096 478.60156 468.42383 C 478.89631 468.73123 479.11513 469.01009 479.25781 469.26172 C 479.4151 469.49788 479.48984 469.71431 479.48047 469.91016 C 479.48569 470.09054 479.40861 470.26541 479.24805 470.43555 C 479.08748 470.60569 478.72311 470.77455 478.15625 470.94141 C 477.58939 471.10827 476.92633 471.34454 476.16797 471.65234 C 475.39414 471.94555 474.57174 472.35327 473.69922 472.875 C 472.81123 473.38214 471.96493 474.06141 471.16211 474.91211 C 470.53445 475.5772 470.07235 476.23706 469.77539 476.89258 C 469.46297 477.5335 469.29288 478.16363 469.26562 478.78125 C 469.2375 479.3688 469.34435 479.93667 469.58594 480.48633 C 469.84212 481.02052 470.19403 481.49857 470.64258 481.92188 C 471.30767 482.54953 472.05604 482.9199 472.88672 483.03125 C 473.71652 483.11254 474.61045 483.03323 475.56641 482.79492 C 476.52149 482.52655 477.5334 482.16708 478.60352 481.71484 C 479.65816 481.24801 480.75062 480.78796 481.88086 480.33398 C 483.0111 479.88001 484.1813 479.49274 485.39062 479.17188 C 486.58448 478.83642 487.79884 478.68064 489.0332 478.70508 C 490.2521 478.71492 491.485 478.9582 492.73242 479.43359 C 493.96437 479.89439 495.18223 480.69349 496.38867 481.83203 C 497.96633 483.3209 499.07464 484.92111 499.71094 486.63281 C 500.34724 488.34451 500.59176 490.08326 500.44727 491.84766 C 500.28731 493.59746 499.77402 495.33343 498.90625 497.05859 C 498.03848 498.78376 496.88258 500.4121 495.4375 501.94336 C 494.45952 502.97966 493.46206 503.86698 492.44531 504.60352 C 491.44316 505.32458 490.50512 505.91535 489.63086 506.37695 C 488.74113 506.82396 487.94499 507.15522 487.24414 507.37109 C 486.55789 507.5715 486.01974 507.67814 485.62891 507.68945 C 485.23807 507.70077 484.81426 507.57783 484.35547 507.32031 C 483.8958 507.03273 483.30915 506.55231 482.59766 505.88086 C 482.11817 505.42836 481.73117 505.03278 481.43555 504.69531 C 481.13993 504.35785 480.92003 504.06413 480.77734 503.8125 C 480.64925 503.54541 480.59821 503.32188 480.62305 503.14062 C 480.64702 502.92931 480.73099 502.74647 480.87695 502.5918 C 481.08131 502.37526 481.49909 502.19713 482.12695 502.05859 C 482.75394 501.88999 483.51304 501.64121 484.40625 501.31445 C 485.29946 500.9877 486.27994 500.52443 487.3457 499.92188 C 488.4106 499.28926 489.47545 498.4084 490.54102 497.2793 C 491.24166 496.53687 491.78343 495.79129 492.16797 495.04297 C 492.53704 494.28005 492.74998 493.54462 492.80469 492.83594 C 492.87399 492.11179 492.77122 491.41513 492.49609 490.74609 C 492.22096 490.07705 491.78893 489.46483 491.20117 488.91016 C 490.52061 488.2679 489.76535 487.9055 488.93555 487.82422 C 488.09027 487.72834 487.19634 487.80765 486.25586 488.06055 C 485.3145 488.28338 484.32521 488.6209 483.28516 489.07227 C 482.22964 489.50903 481.1361 489.95423 480.00586 490.4082 C 478.87562 490.86218 477.72027 491.24837 476.54102 491.56836 C 475.34629 491.87375 474.14077 492.02156 472.92188 492.01172 C 471.70211 491.97181 470.46812 491.71368 469.2207 491.23828 C 467.97328 490.76288 466.72355 489.93429 465.4707 488.75195 C 464.03225 487.39446 463.02001 485.94219 462.43359 484.39453 C 461.84631 482.81681 461.61879 481.24433 461.75391 479.67578 C 461.88815 478.07717 462.35495 476.49904 463.15234 474.94141 C 463.96434 473.3683 465.01925 471.89221 466.31836 470.51562 C 466.98981 469.80413 467.71637 469.14447 468.49609 468.53516 C 469.27581 467.92584 470.04888 467.39861 470.81836 466.95508 C 471.58784 466.51155 472.31549 466.16092 473 465.90039 C 473.68451 465.63986 474.17788 465.5048 474.47852 465.49609 z M 433.81836 495.85156 C 434.12261 495.86385 434.35625 495.92637 434.51953 496.04297 C 434.68281 496.15957 434.80546 496.31713 434.88672 496.51367 L 449.0625 530.79883 C 449.2494 531.25086 449.33713 531.68669 449.32617 532.10547 C 449.31521 532.52424 449.22061 532.9082 449.04297 533.25781 C 448.88498 533.59929 448.64302 533.90737 448.31836 534.17969 C 448.00522 534.42422 447.66248 534.62295 447.28906 534.77734 L 443.98633 536.14258 C 443.29845 536.42699 442.67139 536.60599 442.10352 536.67969 C 441.55529 536.74526 440.99271 536.69062 440.41406 536.51562 C 439.84694 536.31285 439.24068 535.98776 438.5957 535.54102 C 437.9426 535.07462 437.16717 534.45141 436.26953 533.67188 L 419.40234 519.76172 C 418.41324 518.92795 417.38041 518.01999 416.30664 517.03711 C 415.22475 516.03458 414.21858 515.04689 413.28711 514.07422 L 413.22852 514.09766 C 413.8922 515.48022 414.53578 516.87072 415.16016 518.26953 C 415.77641 519.64869 416.39414 521.0864 417.01172 522.58008 L 425.26367 542.53711 C 425.34493 542.73365 425.35955 542.93464 425.30664 543.14062 C 425.27338 543.33848 425.14241 543.55347 424.91602 543.78516 C 424.70115 543.98906 424.38078 544.21508 423.95312 544.46094 C 423.52547 544.7068 422.95753 544.97504 422.25 545.26758 C 421.56212 545.55199 420.98032 545.75878 420.50391 545.88672 C 420.02749 546.01465 419.63988 546.08247 419.34375 546.08984 C 419.0395 546.07756 418.80585 546.01308 418.64258 545.89648 C 418.4793 545.77988 418.3586 545.62232 418.27734 545.42578 L 404.10156 511.14062 C 403.71964 510.2169 403.69922 509.41948 404.04297 508.74805 C 404.39825 508.04883 404.96971 507.53598 405.75586 507.21094 L 409.91211 505.49219 C 410.65895 505.1834 411.31689 504.99362 411.88477 504.91992 C 412.44452 504.82657 412.98113 504.84623 413.49609 504.97852 C 414.03071 505.10268 414.58503 505.35585 415.1582 505.74023 C 415.72325 506.10496 416.35068 506.59298 417.04102 507.20508 L 430.23633 518.07812 C 431.01813 518.74446 431.78504 519.40574 432.53906 520.06055 C 433.30461 520.68758 434.0547 521.3312 434.78906 521.99414 C 435.5153 522.63742 436.22732 523.27645 436.92578 523.9082 C 437.62424 524.53996 438.31338 525.17457 438.99219 525.81445 L 439.02148 525.80273 C 438.3937 524.45135 437.75063 523.03798 437.09375 521.56055 C 436.45652 520.07499 435.85757 518.65298 435.29688 517.29688 L 427.89844 499.40234 C 427.81718 499.20581 427.80451 499.00481 427.85742 498.79883 C 427.91034 498.59284 428.04899 498.37426 428.27539 498.14258 C 428.50179 497.91089 428.83375 497.68128 429.26953 497.45508 C 429.69719 497.20922 430.26317 496.94097 430.9707 496.64844 C 431.63893 496.37216 432.21304 496.16895 432.68945 496.04102 C 433.15774 495.89343 433.53376 495.83115 433.81836 495.85156 z M 317.7207 498.49609 C 318.03669 498.48563 318.36307 498.5336 318.69727 498.64062 L 328.87305 501.90039 C 329.90601 502.23118 330.75084 502.52475 331.40625 502.7793 C 332.06166 503.03385 332.65424 503.27779 333.18164 503.51367 C 334.69012 504.24238 335.98382 505.08225 337.06445 506.03125 C 338.16534 506.98673 339.00821 508.04867 339.59375 509.21875 C 340.20603 510.37507 340.55027 511.63557 340.62695 513 C 340.71012 514.34417 340.50333 515.7959 340.00391 517.35547 C 339.58231 518.67199 339.02269 519.82318 338.32812 520.80664 C 337.6603 521.77633 336.86781 522.58149 335.94727 523.22461 C 335.02672 523.86773 333.98895 524.3508 332.83594 524.67383 C 331.68292 524.99686 330.43809 525.15668 329.09961 525.15234 C 329.59617 525.624 330.03157 526.1437 330.4082 526.71094 C 330.80509 527.28466 331.13313 527.93595 331.39062 528.66602 C 331.67486 529.38231 331.89935 530.17947 332.06445 531.05859 C 332.23604 531.91746 332.3647 532.87476 332.45117 533.92969 L 333.28125 542.73828 C 333.33859 543.60523 333.35923 544.23776 333.34375 544.63477 C 333.33476 545.01152 333.29924 545.29941 333.23438 545.50195 C 333.16303 545.72475 333.06064 545.90493 332.92773 546.04102 C 332.80132 546.15685 332.57062 546.21672 332.23438 546.2207 C 331.89813 546.22468 331.42847 546.15345 330.82812 546.00586 C 330.22778 545.85827 329.42091 545.62118 328.4082 545.29688 C 327.55753 545.02446 326.88596 544.7886 326.39258 544.58594 C 325.8992 544.38328 325.51748 544.18098 325.24609 543.98242 C 325.00145 543.77009 324.84307 543.56423 324.77344 543.36328 C 324.71029 543.14208 324.67896 542.8979 324.67578 542.62891 L 323.96289 532.71875 C 323.85537 531.59009 323.72111 530.57711 323.5625 529.67773 C 323.40389 528.77836 323.1528 527.99468 322.80859 527.32617 C 322.49113 526.6439 322.05014 526.06656 321.48633 525.5957 C 320.92251 525.12485 320.21591 524.75288 319.36523 524.48047 L 316.875 523.68359 L 312.07812 538.66016 C 312.01326 538.8627 311.88312 539.02204 311.68945 539.13867 C 311.51604 539.26179 311.26202 539.3261 310.92578 539.33008 C 310.58954 539.33406 310.15862 539.28498 309.63281 539.18359 C 309.107 539.0822 308.44811 538.9053 307.6582 538.65234 C 306.88855 538.40587 306.25129 538.16885 305.74414 537.93945 C 305.25725 537.71654 304.87685 537.5052 304.60547 537.30664 C 304.33409 537.10808 304.16339 536.90798 304.09375 536.70703 C 304.02411 536.50608 304.02303 536.3041 304.08789 536.10156 L 315.51953 500.4043 C 315.80492 499.51311 316.23195 498.94721 316.80078 498.70508 C 317.09856 498.57713 317.40471 498.50656 317.7207 498.49609 z M 322.36133 506.54883 L 318.79102 517.69727 L 322.86133 519.00195 C 323.99556 519.36517 325.02985 519.55144 325.96484 519.56055 C 326.90632 519.5494 327.74011 519.39043 328.46289 519.08594 C 329.19216 518.76119 329.80842 518.30096 330.3125 517.70312 C 330.81658 517.10529 331.20415 516.37997 331.47656 515.5293 C 331.89167 514.23303 331.94847 513.04608 331.64648 511.9668 C 331.3445 510.88752 330.58331 509.95086 329.36328 509.1582 C 328.99063 508.92721 328.55012 508.69815 328.04297 508.46875 C 327.55607 508.24584 326.85675 507.98719 325.94531 507.69531 L 322.36133 506.54883 z M 391.47461 508.46875 C 391.6913 508.47793 391.88303 508.49749 392.04883 508.52539 C 392.38043 508.58119 392.62304 508.68364 392.77539 508.83203 C 392.94875 508.97714 393.05114 509.15316 393.08398 509.36328 L 399.10352 547.87891 C 399.13636 548.08903 399.09152 548.28938 398.9707 548.48047 C 398.8709 548.66827 398.67181 548.83982 398.37305 548.99414 C 398.07428 549.14846 397.6678 549.29822 397.15234 549.44336 C 396.63689 549.5885 395.96987 549.72544 395.15039 549.85352 C 394.35192 549.97831 393.67336 550.05187 393.11719 550.07422 C 392.58203 550.09328 392.14996 550.07533 391.81836 550.01953 C 391.48675 549.96373 391.23391 549.86386 391.06055 549.71875 C 390.9082 549.57036 390.81604 549.38981 390.7832 549.17969 L 384.76367 510.66406 C 384.73083 510.45394 384.76348 510.25616 384.86328 510.06836 C 384.98409 509.87727 385.19342 509.70315 385.49219 509.54883 C 385.81196 509.39122 386.23064 509.24084 386.74609 509.0957 C 387.26155 508.95056 387.91833 508.8162 388.7168 508.69141 C 389.53628 508.56333 390.21289 508.48977 390.74805 508.4707 C 391.01563 508.46117 391.25792 508.45957 391.47461 508.46875 z M 353.45508 508.81641 L 374.04102 509.79297 C 374.23221 509.80203 374.3993 509.8633 374.54297 509.97656 C 374.68664 510.08983 374.80531 510.28716 374.89844 510.56836 C 374.99257 510.82831 375.04991 511.17077 375.07227 511.59766 C 375.11687 512.0043 375.12395 512.52676 375.09375 513.16406 C 375.06556 513.75888 375.00965 514.2676 374.92578 514.68945 C 374.86417 515.09107 374.77455 515.41613 374.65625 515.66602 C 374.53795 515.9159 374.40084 516.10029 374.24609 516.2207 C 374.09236 516.31987 373.91971 516.36648 373.72852 516.35742 L 359.00781 515.6582 L 358.5293 525.72852 L 370.99023 526.31836 C 371.18143 526.32742 371.34757 526.40065 371.49023 526.53516 C 371.65515 526.64943 371.78477 526.83575 371.87891 527.0957 C 371.97405 527.33441 372.03233 527.66687 372.05469 528.09375 C 372.09929 528.5004 372.10827 529.00089 372.08008 529.5957 C 372.05088 530.21176 371.99497 530.72049 371.91211 531.12109 C 371.8505 531.52271 371.76088 531.84777 371.64258 532.09766 C 371.52529 532.3263 371.37811 532.48973 371.20312 532.58789 C 371.04939 532.68706 370.87674 532.73367 370.68555 532.72461 L 358.22656 532.13281 L 357.67578 543.76367 L 372.52539 544.46875 C 372.71658 544.47781 372.88273 544.54909 373.02539 544.68359 C 373.19031 544.79786 373.31993 544.98419 373.41406 545.24414 C 373.5082 545.5041 373.56554 545.84851 373.58789 546.27539 C 373.63249 546.68204 373.64052 547.19253 373.61133 547.80859 C 373.58213 548.42465 373.52527 548.94338 373.44141 549.36523 C 373.37979 549.76685 373.29017 550.09386 373.17188 550.34375 C 373.05358 550.59364 372.90646 550.77708 372.73047 550.89648 C 372.57673 550.99566 372.40408 551.04031 372.21289 551.03125 L 351.50195 550.05078 C 350.80092 550.01756 350.21557 549.78811 349.74609 549.36133 C 349.29887 548.91431 349.09633 548.22182 349.14062 547.28711 L 350.84375 511.34375 C 350.88804 510.40904 351.15414 509.75062 351.64062 509.36914 C 352.14936 508.96742 352.75404 508.78319 353.45508 508.81641 z " /><path
     id="text70"
     style="font-variant:normal;font-weight:bold;font-size:65.3335px;font-family:Calibri;-inkscape-font-specification:Calibri-Bold;writing-mode:lr-tb;fill:#231f20;fill-opacity:1;fill-rule:nonzero;stroke:none;stroke-width:1.33333"
     d="M 502.86496 251.31468 C 502.39708 251.71876 502.16199 252.38832 502.16199 253.32408 L 502.16243 289.30766 C 502.16243 290.24343 502.39633 290.92585 502.86421 291.3512 C 503.35336 291.75528 503.94858 291.95752 504.65041 291.95752 L 509.04743 291.95788 L 511.03345 267.32878 L 510.51979 267.32847 L 510.52106 257.24811 L 511.84692 257.24902 L 512.37793 250.67667 L 504.65075 250.67693 C 503.94892 250.67693 503.35411 250.88933 502.86496 251.31468 z "
     transform="rotate(32.386513)" /><text
     id="text134"
     style="font-variant:normal;font-weight:bold;font-size:69.3333px;font-family:Calibri;-inkscape-font-specification:Calibri-Bold;writing-mode:lr-tb;fill:#231f20;fill-opacity:1;fill-rule:nonzero;stroke:none;stroke-width:1.33333"
     x="302.36267"
     y="190.58401"><tspan
       id="tspan132"
       y="190.58401"
       x="302.36267 335.8324 369.10095 403.31256"
       style="stroke-width:1.33333">1923</tspan></text><path
     id="path154"
     style="fill:none;stroke:#231f20;stroke-width:12;stroke-linecap:round;stroke-linejoin:round;stroke-miterlimit:4;stroke-dasharray:none;stroke-opacity:1"
     d="m 221.47999,83.906687 c -43.08666,51.401333 -89.19666,106.582663 -89.19666,106.582663 0,0 49.89,34.772 48.378,85.41733 -1.512,50.64533 -39.752,77.10267 -49.35613,83.14933 -0.3552,14.36267 -14.89587,141.35467 89.41879,215.43333 120.18933,70.30013 146.64667,83.52773 155.21467,95.24387 6.54933,-10.95987 35.024,-24.94374 155.21333,-95.24387 104.31466,-74.07866 89.77466,-201.07066 89.41866,-215.43333 -9.604,-6.04666 -47.844,-32.504 -49.356,-83.14933 -1.512,-50.64533 48.37867,-85.41733 48.37867,-85.41733 0,0 -46.11067,-55.18133 -89.19733,-106.582663 -47.62267,25.701333 -154.45733,24.945333 -154.45733,24.945333 0,0 -106.836,0.756 -154.45867,-24.945333 z" /></svg>
