<?xml version="1.0" encoding="UTF-8" standalone="no"?>
<svg
   xmlns:dc="http://purl.org/dc/elements/1.1/"
   xmlns:cc="http://creativecommons.org/ns#"
   xmlns:rdf="http://www.w3.org/1999/02/22-rdf-syntax-ns#"
   xmlns:svg="http://www.w3.org/2000/svg"
   xmlns="http://www.w3.org/2000/svg"
   viewBox="0 0 755.90668 755.90668"
   height="755.90668"
   width="755.90668"
   xml:space="preserve"
   id="svg2"
   version="1.1"><metadata
     id="metadata8"><rdf:RDF><cc:Work
         rdf:about=""><dc:format>image/svg+xml</dc:format><dc:type
           rdf:resource="http://purl.org/dc/dcmitype/StillImage" /></cc:Work></rdf:RDF></metadata><defs
     id="defs6" /><g
     transform="matrix(1.3333333,0,0,-1.3333333,0,755.90667)"
     id="g10"><g
       transform="scale(0.1)"
       id="g12"><path
         id="path14"
         style="fill:#ffffff;fill-opacity:1;fill-rule:nonzero;stroke:none"
         d="m 2824.72,4852.91 c 0,0 -806.45,-5.67 -1163.62,187.09 -323.15,-385.51 -668.975,-799.37 -668.975,-799.37 0,0 374.175,-260.79 362.835,-640.63 C 1343.62,3220.16 1056.82,3021.73 984.789,2976.38 982.125,2868.66 873.07,1916.22 1655.43,1360.63 2556.85,833.379 2755.28,734.172 2819.54,646.301 c 49.12,82.199 262.68,187.078 1164.1,714.329 782.36,555.59 673.31,1508.03 670.64,1615.75 -72.03,45.35 -358.83,243.78 -370.17,623.62 -11.34,379.84 362.84,640.63 362.84,640.63 0,0 -345.83,413.86 -668.98,799.37 C 3620.8,4847.24 2814.35,4852.91 2814.35,4852.91" /><path
         id="path16"
         style="fill:none;stroke:#ffffff;stroke-width:180;stroke-linecap:round;stroke-linejoin:round;stroke-miterlimit:4;stroke-dasharray:none;stroke-opacity:1"
         d="m 2824.72,4852.91 c 0,0 -806.45,-5.67 -1163.62,187.09 -323.15,-385.51 -668.975,-799.37 -668.975,-799.37 0,0 374.175,-260.79 362.835,-640.63 C 1343.62,3220.16 1056.82,3021.73 984.789,2976.38 982.125,2868.66 873.07,1916.22 1655.43,1360.63 2556.85,833.379 2755.28,734.172 2819.54,646.301 c 49.12,82.199 262.68,187.078 1164.1,714.329 782.36,555.59 673.31,1508.03 670.64,1615.75 -72.03,45.35 -358.83,243.78 -370.17,623.62 -11.34,379.84 362.84,640.63 362.84,640.63 0,0 -345.83,413.86 -668.98,799.37 C 3620.8,4847.24 2814.35,4852.91 2814.35,4852.91" /><path
         id="path18"
         style="fill:#2058af;fill-opacity:1;fill-rule:nonzero;stroke:none"
         d="m 1710.24,1322.83 c 901.41,-527.24 1045.04,-588.658 1109.3,-676.529 49.12,82.199 262.68,187.078 1164.1,714.329 782.36,555.59 673.31,1508.03 670.64,1615.75 -72.03,45.35 -358.83,243.78 -370.17,623.62 -11.34,379.84 362.84,640.63 362.84,640.63 0,0 -242.8,273.52 -394.98,455.43 0,0 0,0 -2541.73,-3373.23" /><path
         id="path20"
         style="fill:none;stroke:#ffffff;stroke-width:60;stroke-linecap:butt;stroke-linejoin:miter;stroke-miterlimit:5.5104599;stroke-dasharray:none;stroke-opacity:1"
         d="m 1873.52,3261.22 c 3.3,-2.12 6.44,-3.58 9.44,-4.34 3.4,-1.03 6.26,-1.16 9.37,-0.83 2.97,0.99 5.53,2.25 8.36,3.92 2.44,1.94 4.97,4.96 7.36,8.66 l 22.86,35.36 c 3.47,5.34 5.72,9.72 6.88,14.2 1.56,4.24 2.04,8.6 1.45,13.06 -0.61,4.49 -2.3,9.08 -4.67,13.54 -2.78,4.7 -6.24,9.26 -10.68,15.06 l -116.65,157.69 0.26,0.4 191,-43.65 c 6.82,-2.1 12.41,-3.38 17.85,-3.97 5.29,0.06 9.76,0.67 14.36,2.36 4.59,1.68 8.62,4.32 12.39,8.31 4.15,3.73 7.75,8.4 11.73,14.56 l 22.61,34.95 c 3.72,5.75 5.27,11.75 3.95,17.85 -1.29,6.09 -5.57,11.2 -12.15,15.45 l -231.44,149.72 c -1.66,1.06 -3.16,1.44 -4.5,1.16 -1.5,0.37 -3.39,-0.74 -5.28,-1.85 -1.75,-1.79 -4.42,-4.14 -6.7,-6.75 -2.13,-3.29 -5.19,-7.14 -8.38,-12.06 -3.2,-4.94 -5.45,-9.31 -7.31,-12.19 -1.7,-3.56 -2.49,-6.56 -3.39,-8.87 -0.52,-2.6 -0.77,-4.77 0.2,-5.97 0.28,-1.36 1.25,-2.56 2.91,-3.63 l 211.29,-136.68 -0.26,-0.43 -258.09,64.35 c -1.93,0.64 -3.69,0.62 -5.3,-0.08 -2.03,-0.44 -3.92,-1.55 -6.06,-3.08 -2.16,-1.51 -4.16,-3.72 -6.72,-6.75 -2.53,-3.01 -5.19,-7.12 -8.11,-11.65 -2.92,-4.52 -5.33,-8.22 -7.05,-11.77 -2.12,-3.3 -3.3,-6.03 -3.81,-8.61 -0.5,-2.59 -0.74,-4.77 -0.31,-6.8 0.03,-1.76 1.14,-3.65 2.26,-5.53 l 162.89,-211.51 -0.26,-0.41 -211.3,136.69 c -1.66,1.06 -3.16,1.45 -4.5,1.15 -1.77,-0.03 -3.39,-0.73 -5.53,-2.25 -1.49,-1.37 -4.16,-3.73 -6.44,-6.34 -2.14,-3.28 -5.2,-7.12 -8.39,-12.06 -3.19,-4.94 -5.44,-9.31 -7.58,-12.6 -1.44,-3.15 -2.48,-6.56 -3.39,-8.87 -0.25,-2.19 -0.48,-4.36 0.49,-5.56 0.28,-1.36 1.25,-2.57 2.9,-3.63 z" /><path
         id="path22"
         style="fill:none;stroke:#ffffff;stroke-width:60;stroke-linecap:butt;stroke-linejoin:miter;stroke-miterlimit:5.5104599;stroke-dasharray:none;stroke-opacity:1"
         d="m 1812.96,2970.45 c 1.93,-0.42 3.44,-0.25 4.63,0.48 1.62,0.64 2.92,1.88 4.39,4.05 1.02,2.3 2.7,5.44 3.92,8.67 1.33,3.74 2.49,9 3.75,14.74 1.27,5.73 2.42,11 2.78,14.92 0.38,3.94 0.16,7.5 0.21,9.98 -0.43,2.61 -1.08,4.25 -2.28,5.52 -0.77,1.19 -2.08,1.97 -4,2.39 l -181.77,40.08 c -10.53,2.31 -19.78,5.86 -27.75,10.64 -7.52,4.65 -13.73,10.54 -18.31,17.08 -4.11,6.42 -7.52,13.68 -8.71,21.96 -1.17,8.29 -0.71,17.22 1.5,27.27 2,9.09 5.35,17.38 10,24.88 4.57,7.01 10.33,12.78 17.24,16.78 7,4.47 15.12,7.17 24.84,8.04 9.25,0.99 20.1,0.1 32.05,-2.53 l 178.42,-39.34 c 1.92,-0.42 3.45,-0.27 4.63,0.47 1.64,0.65 3.03,2.36 4.51,4.53 0.91,1.83 2.6,4.95 3.91,8.67 1.33,3.73 2.37,8.52 3.75,14.73 1.26,5.74 2.42,11 2.78,14.93 0.37,3.93 0.17,7.5 0.2,9.98 -0.42,2.61 -1.08,4.25 -2.28,5.52 -0.76,1.18 -2.08,1.97 -4,2.39 l -183.69,40.5 c -19.12,4.22 -36.5,5.04 -52.01,2.93 -16.1,-2.46 -29.85,-7.96 -41.63,-15.9 -11.89,-8.41 -21.9,-19.74 -29.97,-33.52 -8.15,-14.26 -14.34,-30.95 -18.45,-49.61 -4.53,-20.56 -5.56,-38.89 -3.78,-55.82 1.87,-16.49 6.58,-31.57 14.31,-44.3 7.72,-12.74 18.38,-23.61 32.03,-32.14 13.19,-8.42 29.32,-15 47.97,-19.11 z" /><path
         id="path24"
         style="fill:none;stroke:#ffffff;stroke-width:60;stroke-linecap:butt;stroke-linejoin:miter;stroke-miterlimit:5.5104599;stroke-dasharray:none;stroke-opacity:1"
         d="m 1635.84,2720.66 c 8.6,4.38 16.64,9.7 23.16,16.42 6.05,6.22 11.53,13.86 16,21.94 4.48,8.09 8.42,16.64 11.91,25.16 3.47,8.53 6.45,17.01 9.45,25.03 3,8 6.03,15.51 9.62,22.08 3.57,6.57 8.21,11.71 12.91,15.4 4.69,4.17 10.45,6.45 17.3,6.81 4.89,0.25 9.34,-0.5 13.33,-1.75 4.01,-1.75 8.06,-4 11.18,-7.26 3.11,-3.27 5.28,-7.06 7.52,-12.33 1.73,-4.81 3.03,-11.12 3.41,-17.98 0.43,-8.32 -0.1,-16.68 -2.16,-24.14 -1.56,-7.44 -3.67,-13.94 -5.83,-19.44 -2.62,-6.02 -4.83,-10.55 -6.58,-14.56 -2.23,-4.05 -3.08,-7.05 -3,-8.52 0.11,-1.95 0.69,-3.39 1.71,-4.31 1.04,-0.92 2.56,-1.82 4.54,-2.22 1.97,-0.38 4.94,-0.7 7.88,-0.55 3.45,-0.31 7.36,-0.11 11.76,0.13 4.41,0.23 7.83,0.4 10.27,0.54 2.91,0.66 5.36,0.78 7.28,1.38 1.45,0.56 2.89,1.14 4.31,1.7 0.97,0.53 2.38,1.6 3.75,3.63 1.39,1.54 3.16,5.07 5.35,10.09 2.18,5.02 3.86,10.5 5.47,16.97 1.6,6.45 2.71,13.37 3.79,20.8 0.6,7.37 0.69,14.75 0.3,22.07 -0.75,14.19 -3.42,27.77 -7.5,39.83 -4.59,12.5 -10.56,23.46 -18.39,32.36 -7.85,8.91 -17.52,15.75 -29.05,20.53 -11.53,4.78 -24.89,7 -39.56,6.24 -12.72,-0.69 -23.88,-3.24 -32.95,-7.64 -9.08,-4.41 -16.64,-9.72 -23.18,-15.94 -6.51,-6.72 -12.01,-13.88 -16.5,-21.97 -3.98,-8.06 -7.93,-16.61 -11.42,-25.12 -3.48,-8.04 -6.47,-16.54 -9.47,-24.55 -3.01,-7.99 -6.56,-15.06 -10.14,-21.61 -3.61,-6.08 -7.73,-11.2 -12.42,-15.38 -4.69,-4.17 -10.94,-6.46 -17.78,-6.82 -5.88,-0.32 -11.3,0.37 -16.33,2.56 -4.98,1.69 -9.58,4.87 -13.23,9.11 -3.14,3.76 -6.36,8.98 -8.13,14.76 -2.31,6.25 -3.64,13.05 -4.03,20.39 -0.62,11.74 0.3,22.08 2.27,31.02 1.98,8.92 4.5,16.91 7.59,23.45 3.08,6.55 5.72,12.07 7.97,16.11 2.22,4.05 3.51,7.55 3.41,9.5 -0.11,1.96 -0.68,3.39 -1.71,4.33 -0.53,0.94 -2.04,1.84 -4.54,2.7 -1.97,0.38 -4.46,0.74 -7.91,1.05 -3.44,0.31 -7.84,0.08 -12.74,-0.19 -7.32,-0.39 -12.7,-1.17 -16.54,-2.34 -3.89,-0.7 -6.75,-2.33 -8.58,-4.88 -2.34,-2.07 -4.59,-5.64 -6.8,-10.65 -2.7,-4.56 -4.83,-10.55 -6.9,-17.55 -2.53,-7.48 -4.1,-15.41 -5.55,-24.81 -0.98,-9.36 -1.42,-19.19 -0.86,-29.95 0.83,-15.65 3.56,-30.22 8.72,-44.18 4.64,-13.47 11.66,-25.37 20.51,-35.18 8.36,-9.86 19.08,-17.63 31.61,-22.85 12.57,-5.72 26.91,-7.9 43.54,-7.01 12.21,0.64 22.89,3.18 31.96,7.59 z" /><path
         id="path26"
         style="fill:none;stroke:#ffffff;stroke-width:60;stroke-linecap:butt;stroke-linejoin:miter;stroke-miterlimit:5.5104599;stroke-dasharray:none;stroke-opacity:1"
         d="m 1836.02,2593.58 c 1.9,0.47 3.21,1.31 3.93,2.49 1.19,1.31 1.66,3.45 2.03,6.06 -0.12,2.48 0.13,5.58 -0.34,9.5 -0.47,3.91 -1.75,9.14 -3.17,14.84 -1.53,6.17 -2.7,10.94 -4.13,14.63 -1.42,3.67 -3.18,6.76 -4.25,9.03 -1.54,2.14 -2.96,3.81 -4.62,4.41 -1.19,0.71 -2.72,0.82 -4.63,0.35 l -283.26,-70.12 c -1.91,-0.48 -3.22,-1.3 -3.94,-2.48 -1.19,-1.32 -1.67,-3.46 -2.03,-6.07 0.11,-2.48 -0.13,-5.58 0.33,-9.5 1.06,-4.26 1.76,-9.15 3.29,-15.33 1.43,-5.7 3.18,-10.81 4.13,-14.6 1.42,-3.69 3.06,-6.3 4.14,-8.57 1.53,-2.14 2.97,-3.81 4.63,-4.4 1.18,-0.71 2.71,-0.85 4.62,-0.36 z" /><path
         id="path28"
         style="fill:none;stroke:#ffffff;stroke-width:60;stroke-linecap:butt;stroke-linejoin:miter;stroke-miterlimit:5.5104599;stroke-dasharray:none;stroke-opacity:1"
         d="m 1693.48,2185.29 c 1.73,1.98 4.79,5.71 8.95,11.64 l 83.41,145.54 137.28,-25.67 c 7.43,-0.62 12.68,-1.26 15.98,-1.26 3.28,0.01 5.69,0.67 8.31,2 1.32,0.65 2.39,1.75 3.27,3.29 0.44,1.31 1.08,3.28 0.42,5.69 -0.23,2.61 -0.89,6.11 -2.44,10.28 -1.32,3.72 -3.75,8.52 -6.61,14.2 -2.85,5.69 -5.06,10.05 -7.25,13.33 -2.2,3.27 -4.18,6.11 -5.71,8.08 -1.97,1.75 -3.74,3.06 -5.93,4.14 -1.96,0.64 -3.93,1.3 -6.12,1.3 l -158.28,21.65 117.58,59.21 c 1.75,0.87 2.82,1.97 3.25,3.29 0.87,1.54 1.09,3.29 0.87,5.91 -0.67,2.41 -1.11,5.47 -2.66,9.63 -1.32,3.71 -3.53,8.09 -6.39,13.78 -2.64,5.23 -4.84,9.61 -7.25,13.32 -2.2,3.27 -4.62,5.88 -5.93,7.41 -1.97,1.75 -3.74,3.06 -5.49,3.28 -1.31,0.42 -2.83,0.21 -4.58,-0.67 l -260.07,-130.94 c -1.74,-0.89 -2.83,-1.98 -3.71,-3.51 -0.43,-1.32 -0.86,-3.74 -0.2,-6.14 0,-2.19 0.67,-5.68 2,-9.39 1.97,-3.94 3.73,-8.54 6.37,-13.77 2.86,-5.69 5.5,-9.84 7.27,-13.34 2.42,-3.71 4.61,-5.89 6.59,-7.64 1.54,-1.97 3.5,-2.61 4.82,-3.05 1.76,-0.22 3.29,0 5.03,0.89 l 130.7,65.8 -88.67,-149.28 c -1.74,-1.99 -2.83,-4.18 -3.03,-7 -0.44,-2.43 -0.44,-5.71 0.89,-10.52 1.55,-4.16 4.4,-10.92 9.03,-20.11 2.86,-5.67 5.94,-10.7 7.7,-14.2 2.42,-3.72 4.83,-6.33 6.82,-8.08 1.53,-1.97 3.71,-3.05 4.82,-3.05 1.75,-0.22 3.28,0 5.02,0.89 1.31,0.66 2.41,1.75 3.94,3.07 z" /><path
         id="path30"
         style="fill:none;stroke:#ffffff;stroke-width:60;stroke-linecap:butt;stroke-linejoin:miter;stroke-miterlimit:5.5104599;stroke-dasharray:none;stroke-opacity:1"
         d="m 2126.56,2076.07 c 5.31,2.89 9.56,4.79 12.42,6.75 2.48,1.64 4.33,3.98 4.42,6.06 0.44,2.39 -0.47,5.56 -2.75,8.78 -2.29,3.22 -6.28,7.55 -11.25,12.95 -4.97,5.43 -8.95,9.75 -12.29,12.64 -3.36,2.93 -6.05,5.13 -8.43,6.25 -2.04,0.8 -4.45,1.24 -6.18,0.97 -1.77,-0.28 -3.89,-1.58 -6.04,-2.87 l -225,-106.38 -0.32,0.36 124.9,216.69 c 1.14,2.37 1.92,4.42 2.35,6.14 1.11,1.69 0.5,3.8 -0.11,5.91 -1.3,2.12 -2.92,4.62 -5.53,8.2 -2.3,3.22 -6.29,7.55 -11.25,12.95 -5.64,6.14 -10.29,11.19 -13.96,14.46 -3.7,3.28 -6.73,5.14 -9.5,5.26 -2.4,0.44 -4.54,-0.86 -7.06,-3.19 -2.2,-2.67 -4.45,-6.73 -7.47,-12.17 l -139.95,-253.15 c -0.77,-2.05 -1.89,-3.72 -2.3,-5.46 -0.39,-1.03 -0.81,-2.73 -0.55,-4.48 0.29,-1.74 0.91,-3.16 1.52,-5.27 0.97,-1.76 2.27,-3.9 4.23,-6.75 2.32,-2.53 4.29,-5.39 7.6,-9 2.98,-3.25 6.64,-7.22 10.95,-11.9 5.3,-5.77 9.94,-10.82 13.63,-14.08 3.31,-3.61 6.32,-6.17 9.03,-7.67 2.7,-1.5 5.11,-1.96 6.87,-1.68 2.07,-0.07 4.53,0.85 7,1.79 z" /><path
         id="path32"
         style="fill:none;stroke:#ffffff;stroke-width:60;stroke-linecap:butt;stroke-linejoin:miter;stroke-miterlimit:5.5104599;stroke-dasharray:none;stroke-opacity:1"
         d="m 2181.57,1735.45 c 1.43,3.18 2.33,5.52 2.55,7.69 0.63,1.92 0.19,3.95 -0.37,4.89 -0.32,1.36 -1.3,2.56 -2.54,3.35 l -94.01,59.67 46.8,73.72 78.68,-49.96 c 1.24,-0.78 2.74,-1.14 3.83,-1.26 1.36,0.29 3.38,0.76 4.6,1.73 1.87,1.13 3.6,2.94 5.59,5.17 2.26,2.63 4.11,5.53 6.73,9.68 2.36,3.73 4.47,7.04 5.63,9.79 1.17,2.74 2.06,5.06 2.28,7.25 0.64,1.92 0.19,3.96 -0.38,4.89 -0.31,1.36 -1.29,2.57 -2.53,3.35 l -78.68,49.95 40.48,63.78 93.19,-59.14 c 1.23,-0.8 2.75,-1.17 4.11,-0.87 1.48,-0.36 3.11,0.34 4.58,1.73 1.87,1.12 3.6,2.95 5.85,5.58 1.99,2.22 4.1,5.54 6.46,9.26 2.62,4.14 4.73,7.46 5.9,10.21 1.43,3.17 2.33,5.48 2.55,7.67 0.22,2.19 0.59,3.7 -0.11,5.31 -0.58,0.94 -1.56,2.14 -2.8,2.94 l -130.46,82.8 c -4.55,2.89 -9.07,4 -13.82,2.95 -4.47,-0.64 -8.75,-3.74 -12.7,-9.95 l -144.56,-227.79 c -3.96,-6.21 -4.92,-11.4 -3.61,-15.73 1.06,-4.73 4.01,-8.34 8.56,-11.23 l 131.3,-83.33 c 1.23,-0.78 2.75,-1.16 4.09,-0.86 1.1,-0.11 3.13,0.34 4.6,1.73 1.87,1.14 3.59,2.94 5.85,5.58 1.99,2.22 4.1,5.53 6.72,9.67 2.36,3.72 4.47,7.03 5.64,9.78 z" /><path
         id="path34"
         style="fill:none;stroke:#ffffff;stroke-width:60;stroke-linecap:butt;stroke-linejoin:miter;stroke-miterlimit:5.5104599;stroke-dasharray:none;stroke-opacity:1"
         d="m 2500.24,1584.32 c -0.04,3.1 -0.09,7.74 -0.64,14.08 l -6.42,66.36 c -0.56,7.89 -1.41,14.86 -2.88,21.5 -1,6.49 -2.62,12.66 -5,18.05 -1.76,5.72 -4.43,10.17 -7.12,14.64 -2.83,3.98 -6.13,8.14 -10.03,11.95 10.2,-0.19 19.33,1 28.3,3.25 8.48,2.44 16.34,6.08 23.09,11.1 7.08,4.42 13.2,10.67 18.08,17.86 5.03,7.62 9.26,16.03 12.42,25.82 3.73,11.66 5.17,22.52 4.75,32.43 -0.74,10.51 -3.31,20.07 -7.75,28.7 -4.42,8.62 -10.69,16.3 -18.67,23.48 -8.44,7.35 -18.27,13.6 -29.32,19.19 -4.04,1.83 -8.7,3.33 -13.23,5.28 -4.97,2.13 -11.48,4.22 -18.95,6.61 l -76.44,24.56 c -5.13,1.66 -9.78,1.6 -14.08,-0.62 -4.15,-1.75 -7.53,-5.8 -9.78,-12.78 l -85.81,-267.1 c -0.61,-1.86 -0.6,-3.42 0.04,-4.65 0.5,-1.69 1.58,-3.08 3.61,-4.75 2.19,-1.22 5.14,-3.21 8.74,-4.88 3.72,-1.19 8.23,-3.14 14.3,-5.09 5.59,-1.8 10.87,-2.99 14.59,-4.19 3.87,-0.73 7.45,-0.84 9.45,-0.97 2.63,0.17 4.81,0.52 6.17,1.6 1.24,0.64 2.16,1.9 2.77,3.76 l 36.09,112.33 18.64,-6 c 6.54,-2.09 11.82,-4.81 15.88,-8.19 4.37,-3.97 7.69,-8.11 10.2,-13.03 2.39,-5.41 4.16,-11.11 5.63,-17.75 1.29,-7.11 2,-14.55 2.87,-23.05 l 5.46,-74.25 c -0.13,-2.03 0.18,-4.18 0.82,-5.42 0.5,-1.69 1.44,-3.54 3.61,-4.75 2.03,-1.69 4.67,-3.04 8.27,-4.72 3.58,-1.65 8.7,-3.29 15.22,-5.39 7.47,-2.4 13.53,-4.34 17.87,-5.25 4.8,-1.01 8.22,-1.61 10.71,-1.87 2.62,0.17 4.32,0.65 5.25,1.9 0.76,0.79 1.67,2.04 2.26,3.89 0.45,1.41 0.59,3.43 1.03,6.36 z m -22.95,202.27 c -3.52,-4.52 -8.28,-8.13 -13.67,-10.52 -5.39,-2.39 -11.89,-3.39 -19,-3.14 -6.82,-0.39 -14.57,1.08 -22.96,3.77 l -30.76,9.89 26.81,83.44 27.03,-8.69 c 6.53,-2.09 12.13,-3.89 15.69,-5.56 3.58,-1.67 7.02,-3.8 9.67,-5.16 9.35,-6.09 14.83,-13 17.25,-21.5 2.1,-7.86 1.88,-16.55 -1.26,-26.33 -2.1,-6.53 -4.82,-11.83 -8.8,-16.2 z" /><path
         id="path36"
         style="fill:none;stroke:#ffffff;stroke-width:60;stroke-linecap:butt;stroke-linejoin:miter;stroke-miterlimit:5.5104599;stroke-dasharray:none;stroke-opacity:1"
         d="m 2801.78,1572.46 c -0.33,3.44 -0.72,5.91 -1.59,7.91 -0.39,1.98 -1.8,3.51 -2.75,4.04 -0.94,1.04 -2.38,1.6 -3.85,1.66 l -111.01,5.2 4.08,87.05 92.92,-4.36 c 1.47,-0.06 2.95,0.36 3.95,0.8 1.03,0.95 2.58,2.33 3.13,3.78 1.06,1.92 1.67,4.33 2.29,7.25 0.64,3.39 0.82,6.81 1.03,11.7 0.21,4.41 0.4,8.31 0.05,11.28 -0.34,2.96 -0.73,5.43 -1.61,7.43 -0.39,1.98 -1.79,3.51 -2.75,4.04 -0.94,1.02 -2.37,1.6 -3.84,1.66 l -92.92,4.36 3.53,75.31 110.03,-5.16 c 1.47,-0.07 2.97,0.35 3.97,1.29 1.5,0.42 2.54,1.84 3.12,3.76 1.08,1.91 1.67,4.34 2.33,7.74 0.63,2.92 0.81,6.82 1.02,11.23 0.23,4.89 0.42,8.8 0.06,11.75 -0.33,3.45 -0.7,5.91 -1.59,7.92 -0.88,2 -1.32,3.5 -2.74,4.53 -0.94,0.55 -2.39,1.1 -3.86,1.17 l -154.05,7.22 c -5.37,0.25 -9.84,-1.01 -13.42,-4.26 -3.56,-2.78 -5.75,-7.58 -6.09,-14.91 l -12.61,-268.98 c -0.34,-7.33 1.37,-12.32 4.67,-15.41 3.25,-3.59 7.6,-5.26 12.97,-5.51 l 155.03,-7.27 c 1.47,-0.06 2.94,0.34 3.97,1.28 1.02,0.44 2.55,1.84 3.13,3.77 1.06,1.9 1.67,4.34 2.32,7.75 0.61,2.9 0.8,6.81 1.03,11.7 0.21,4.41 0.4,8.31 0.05,11.28 z" /><path
         id="path38"
         style="fill:none;stroke:#ffffff;stroke-width:60;stroke-linecap:butt;stroke-linejoin:miter;stroke-miterlimit:5.5104599;stroke-dasharray:none;stroke-opacity:1"
         d="m 2948.81,1849.31 c -0.3,1.94 -1,3.31 -2.13,4.14 -1.18,1.3 -3.28,1.95 -5.84,2.55 -2.5,0.09 -5.56,0.61 -9.52,0.48 -3.93,-0.12 -9.26,-0.97 -15.07,-1.89 -6.3,-0.98 -11.14,-1.75 -14.96,-2.84 -3.79,-1.1 -7.04,-2.61 -9.39,-3.47 -2.28,-1.36 -4.06,-2.63 -4.81,-4.24 -0.81,-1.12 -1.08,-2.65 -0.78,-4.59 l 44.64,-288.74 c 0.3,-1.93 1,-3.31 2.12,-4.12 1.19,-1.3 3.29,-1.97 5.85,-2.55 2.5,-0.11 5.58,-0.61 9.53,-0.48 4.36,0.69 9.26,0.97 15.56,1.95 5.81,0.92 11.08,2.25 14.95,2.86 3.8,1.09 6.55,2.52 8.9,3.39 2.28,1.35 4.06,2.63 4.81,4.24 0.81,1.11 1.08,2.64 0.78,4.57 z" /><path
         id="path40"
         style="fill:none;stroke:#ffffff;stroke-width:60;stroke-linecap:butt;stroke-linejoin:miter;stroke-miterlimit:5.5104599;stroke-dasharray:none;stroke-opacity:1"
         d="m 3261.88,1945.73 c -0.57,1.36 -1.57,2.54 -2.58,3.71 -1.27,0.53 -3.19,1.33 -5.38,1.47 -2.19,0.15 -5.08,-0.53 -8.42,-1.39 -3.81,-1.05 -7.87,-2.74 -12.86,-4.82 -5.42,-2.25 -9.95,-4.12 -12.94,-5.9 -3.42,-1.96 -5.97,-3.53 -7.4,-5.19 -1.88,-1.83 -2.67,-3.75 -3.21,-5.03 -0.34,-1.75 -0.25,-3.3 0.32,-4.66 l 55.37,-134.34 c 4.11,-9.95 8.58,-20.81 13.69,-31.94 4.48,-10.86 9.41,-21.51 14.16,-31.72 l -0.46,-0.19 c -4.69,4.93 -9.84,9.68 -15.42,14.25 -5.14,4.75 -10.28,9.5 -16.05,14.52 -5.14,4.75 -10.92,9.77 -16.68,14.8 -5.6,4.56 -11.38,9.56 -17.14,14.59 l -98.72,81.38 c -5.14,4.75 -9.72,8.14 -14.11,11.09 -4.39,2.95 -8.24,4.52 -12.33,5.47 -3.64,1.14 -8.02,1.45 -12,0.84 -4.45,-0.79 -9.16,-2.22 -15.03,-4.65 l -31.22,-12.97 c -5.88,-2.46 -10.11,-6.33 -12.88,-11.19 -2.59,-5.31 -2.15,-11.48 0.64,-18.27 l 105.91,-256.95 c 0.56,-1.36 1.58,-2.53 2.59,-3.69 1.25,-0.53 3.18,-1.32 5.18,-1.03 2.64,0.05 5.28,0.08 9.07,1.13 3.18,1.31 7.88,2.75 12.86,4.81 5.43,2.25 9.77,4.59 12.93,5.91 3.43,1.95 5.78,3.98 7.21,5.64 1.61,1.2 2.86,3.32 2.96,4.42 0.34,1.72 0.23,3.26 -0.33,4.62 l -61.72,149.74 c -4.66,11.31 -9.12,22.17 -13.87,32.39 -4.74,10.2 -9.66,20.87 -14.41,31.09 l 0.45,0.19 c 6.72,-7.28 14.5,-14.64 22.32,-22 8.43,-7.61 16.04,-14.52 23.29,-20.52 l 126.21,-104.39 c 6.6,-5.73 12.18,-10.29 17.42,-13.95 4.58,-3.39 9.22,-5.7 13.51,-7.11 4.3,-1.39 8.64,-1.69 12.83,-1.55 4.44,0.79 8.7,2.02 14.13,4.29 l 24.89,10.34 c 2.7,1.12 5.23,2.7 7.57,4.73 2.54,1.58 4.22,3.88 5.75,6.64 1.07,2.55 1.49,5.38 1.74,8.66 0.22,3.27 -0.45,6.17 -1.94,9.8 z" /><g
         transform="scale(10)"
         id="g42"><text
           id="text46"
           style="font-variant:normal;font-weight:bold;font-size:48.99999619px;font-family:Calibri;-inkscape-font-specification:Calibri-Bold;writing-mode:lr-tb;fill:#231f20;fill-opacity:1;fill-rule:nonzero;stroke:none"
           transform="matrix(-0.542608,-0.839986,-0.839986,0.542608,184.874,374.666)"><tspan
             id="tspan44"
             y="0"
             x="0">M</tspan></text>
<text
           id="text50"
           style="font-variant:normal;font-weight:bold;font-size:49px;font-family:Calibri;-inkscape-font-specification:Calibri-Bold;writing-mode:lr-tb;fill:#231f20;fill-opacity:1;fill-rule:nonzero;stroke:none"
           transform="matrix(-0.215712,-0.976457,-0.976457,0.215712,158.084,331.456)"><tspan
             id="tspan48"
             y="0"
             x="0">U</tspan></text>
<text
           id="text54"
           style="font-variant:normal;font-weight:bold;font-size:49.00001526px;font-family:Calibri;-inkscape-font-specification:Calibri-Bold;writing-mode:lr-tb;fill:#231f20;fill-opacity:1;fill-rule:nonzero;stroke:none"
           transform="matrix(0.0538753,-0.998548,-0.998548,-0.0538753,149.942,292.527)"><tspan
             id="tspan52"
             y="0"
             x="0">S</tspan></text>
<text
           id="text58"
           style="font-variant:normal;font-weight:bold;font-size:48.99998093px;font-family:Calibri;-inkscape-font-specification:Calibri-Bold;writing-mode:lr-tb;fill:#231f20;fill-opacity:1;fill-rule:nonzero;stroke:none"
           transform="matrix(0.240624,-0.970618,-0.970618,-0.240624,152.089,261.544)"><tspan
             id="tspan56"
             y="0"
             x="0">I</tspan></text>
<text
           id="text62"
           style="font-variant:normal;font-weight:bold;font-size:49.00000763px;font-family:Calibri;-inkscape-font-specification:Calibri-Bold;writing-mode:lr-tb;fill:#231f20;fill-opacity:1;fill-rule:nonzero;stroke:none"
           transform="matrix(0.448986,-0.893539,-0.893539,-0.448986,156.46,240.969)"><tspan
             id="tspan60"
             y="0"
             x="0">K</tspan></text>
<text
           id="text66"
           style="font-variant:normal;font-weight:bold;font-size:48.99998474px;font-family:Calibri;-inkscape-font-specification:Calibri-Bold;writing-mode:lr-tb;fill:#231f20;fill-opacity:1;fill-rule:nonzero;stroke:none"
           transform="matrix(0.676338,-0.736589,-0.736591,-0.676338,172.626,208.938)"><tspan
             id="tspan64"
             y="0"
             x="0">V</tspan></text>
<text
           id="text70"
           style="font-variant:normal;font-weight:bold;font-size:49.00009918px;font-family:Calibri;-inkscape-font-specification:Calibri-Bold;writing-mode:lr-tb;fill:#231f20;fill-opacity:1;fill-rule:nonzero;stroke:none"
           transform="matrix(0.844454,-0.535628,-0.535628,-0.844454,197.906,182.1)"><tspan
             id="tspan68"
             y="0"
             x="0">E</tspan></text>
<text
           id="text74"
           style="font-variant:normal;font-weight:bold;font-size:48.99998093px;font-family:Calibri;-inkscape-font-specification:Calibri-Bold;writing-mode:lr-tb;fill:#231f20;fill-opacity:1;fill-rule:nonzero;stroke:none"
           transform="matrix(0.952359,-0.304978,-0.304978,-0.952359,224.59,165.062)"><tspan
             id="tspan72"
             y="0"
             x="0">R</tspan></text>
<text
           id="text78"
           style="font-variant:normal;font-weight:bold;font-size:48.99999619px;font-family:Calibri;-inkscape-font-specification:Calibri-Bold;writing-mode:lr-tb;fill:#231f20;fill-opacity:1;fill-rule:nonzero;stroke:none"
           transform="matrix(0.998879,-0.0473349,-0.0473349,-0.998879,258.392,154.64)"><tspan
             id="tspan76"
             y="0"
             x="0">E</tspan></text>
<text
           id="text82"
           style="font-variant:normal;font-weight:bold;font-size:49.00001907px;font-family:Calibri;-inkscape-font-specification:Calibri-Bold;writing-mode:lr-tb;fill:#231f20;fill-opacity:1;fill-rule:nonzero;stroke:none"
           transform="matrix(0.988006,0.154418,0.154418,-0.988006,289.887,153.673)"><tspan
             id="tspan80"
             y="0"
             x="0">I</tspan></text>
<text
           id="text86"
           style="font-variant:normal;font-weight:bold;font-size:49.00000381px;font-family:Calibri;-inkscape-font-specification:Calibri-Bold;writing-mode:lr-tb;fill:#231f20;fill-opacity:1;fill-rule:nonzero;stroke:none"
           transform="matrix(0.924126,0.382086,0.382088,-0.924126,310.928,155.753)"><tspan
             id="tspan84"
             y="0"
             x="0">N</tspan></text>
</g><path
         id="path88"
         style="fill:none;stroke:#ffffff;stroke-width:60;stroke-linecap:butt;stroke-linejoin:miter;stroke-miterlimit:4;stroke-dasharray:none;stroke-opacity:1"
         d="m 3695.43,2073.76 c -9.1,3.2 -18.54,5.36 -27.88,5.44 -8.67,0.09 -17.98,-1.22 -26.92,-3.55 -8.94,-2.35 -17.86,-5.36 -26.42,-8.74 -8.57,-3.36 -16.78,-7.06 -24.64,-10.4 -7.89,-3.35 -15.41,-6.33 -22.63,-8.27 -7.23,-1.94 -14.15,-2.14 -20.08,-1.28 -6.23,0.53 -11.86,3.14 -16.84,7.84 -3.56,3.36 -6.09,7.1 -7.92,10.86 -1.52,4.11 -2.69,8.58 -2.47,13.08 0.23,4.53 1.48,8.72 3.75,13.99 2.31,4.56 5.95,9.86 10.67,14.84 5.7,6.06 12.14,11.44 18.97,15.11 6.47,4 12.61,6.94 18.09,9.17 6.18,2.25 10.99,3.78 15.1,5.28 4.47,1.17 7.18,2.64 8.2,3.71 1.34,1.42 2,2.81 1.97,4.21 -0.05,1.4 -0.44,3.1 -1.53,4.8 -1.08,1.7 -2.89,4.08 -5.03,6.1 -2.14,2.7 -5,5.39 -8.21,8.42 -3.2,3.03 -5.68,5.37 -7.47,7.06 -2.48,1.67 -4.26,3.34 -6.01,4.34 -1.42,0.64 -2.81,1.3 -4.22,1.94 -1.05,0.33 -2.78,0.63 -5.2,0.2 -2.08,-0.06 -5.86,-1.2 -11,-3.07 -5.14,-1.89 -10.27,-4.47 -16.05,-7.75 -5.81,-3.29 -11.58,-7.25 -17.69,-11.6 -5.76,-4.65 -11.17,-9.67 -16.2,-15 -9.75,-10.33 -17.73,-21.64 -23.66,-32.9 -5.89,-11.96 -9.7,-23.85 -10.75,-35.64 -1.04,-11.82 0.68,-23.55 5.18,-35.19 4.48,-11.66 12.07,-22.88 22.76,-32.96 9.27,-8.75 18.8,-15.06 28.25,-18.57 9.45,-3.55 18.5,-5.38 27.53,-5.82 9.35,-0.06 18.33,0.89 27.28,3.22 8.58,2.67 17.5,5.69 26.07,9.07 8.23,3 16.43,6.7 24.31,10.04 7.86,3.35 15.44,5.64 22.64,7.58 6.89,1.59 13.45,2.13 19.7,1.61 6.25,-0.52 12.22,-3.45 17.21,-8.16 4.28,-4.04 7.53,-8.45 9.39,-13.59 2.21,-4.8 3.07,-10.31 2.54,-15.88 -0.54,-4.85 -2.12,-10.79 -5.08,-16.07 -2.95,-5.99 -6.93,-11.64 -11.98,-16.97 -8.06,-8.55 -16.2,-15.02 -24.03,-19.75 -7.84,-4.72 -15.34,-8.41 -22.22,-10.67 -6.84,-2.3 -12.69,-4.19 -17.16,-5.36 -4.46,-1.16 -7.89,-2.64 -9.23,-4.08 -1.34,-1.42 -2.02,-2.81 -1.97,-4.2 -0.31,-1.05 0.08,-2.79 1.19,-5.16 1.09,-1.7 2.53,-3.75 4.7,-6.45 2.14,-2.72 5.35,-5.75 8.91,-9.11 5.34,-5.05 9.61,-8.38 13.12,-10.35 3.17,-2.34 6.33,-3.29 9.42,-2.86 3.13,-0.25 7.27,0.57 12.41,2.44 5.17,1.19 10.99,3.78 17.47,7.08 7.17,3.33 13.98,7.69 21.8,13.11 7.45,5.75 14.89,12.19 22.29,20.03 10.75,11.39 19.43,23.42 25.96,36.78 6.56,12.66 10.34,25.92 11.34,39.13 1.38,12.86 -0.39,25.96 -5.27,38.65 -4.51,13.03 -12.82,24.92 -24.93,36.35 -8.91,8.4 -18.08,14.37 -27.53,17.92 z" /><path
         id="path90"
         style="fill:none;stroke:#ffffff;stroke-width:60;stroke-linecap:butt;stroke-linejoin:miter;stroke-miterlimit:4;stroke-dasharray:none;stroke-opacity:1"
         d="m 3686.82,2368.49 c -3.05,0.52 -5.66,0.83 -8.1,0.47 -1.98,-0.59 -4.2,-1.64 -6.68,-4.19 -2.25,-2.11 -4.79,-5.75 -7.35,-10.5 -3.22,-4.93 -6.7,-11.39 -11.12,-19.59 -3.94,-7.31 -6.97,-12.92 -8.85,-17.47 -2.33,-4.31 -3.75,-7.98 -4.28,-11.05 -0.3,-2.62 -0.17,-5.46 0.64,-7.03 0.61,-1.98 2.3,-4.01 3.99,-6.03 l 196.47,-214.36 c 4.25,-4.51 7.67,-7.47 10.45,-9.51 2.34,-1.83 5.17,-2.78 7.17,-2.21 2.64,0.82 5.34,2.69 7.61,5.91 2.09,3.87 5.09,8.37 8.58,14.84 3.25,6.03 6.03,11.21 7.45,14.89 1.67,4.11 2.63,6.94 2.94,9.57 0.72,2.39 0.14,4.36 -0.7,5.92 -0.6,1.98 -2.08,3.36 -3.35,5.14 l -44.39,45.62 55.53,103 64.25,-11.82 c 1.96,-0.52 4.16,-0.58 5.47,-0.18 1.77,0.16 3.33,0.99 4.91,2.91 2.03,1.69 4.08,4.47 6.17,8.36 2.76,4.06 5.78,9.67 9.5,16.56 3.72,6.91 6.73,12.5 8.39,16.61 1.67,4.13 2.19,7.17 1.39,9.81 -0.36,2.44 -2.28,4.02 -5.53,5.22 -3.25,1.19 -7.83,1.99 -13.69,3.5 z m 155.92,-87.37 -41.13,-76.28 -95.48,100.4 0.22,0.44 z" /><path
         id="path92"
         style="fill:none;stroke:#ffffff;stroke-width:60;stroke-linecap:butt;stroke-linejoin:miter;stroke-miterlimit:4;stroke-dasharray:none;stroke-opacity:1"
         d="m 3761.4,2565.04 c -1.89,0.5 -3.44,0.39 -4.64,-0.29 -1.67,-0.57 -3.13,-2.21 -4.71,-4.34 -1.1,-2.23 -2.82,-4.83 -4.31,-8.48 -1.48,-3.68 -2.89,-8.88 -4.4,-14.57 -1.66,-6.15 -2.93,-10.89 -3.46,-14.81 -0.54,-3.92 -0.48,-7.48 -0.64,-9.98 0.31,-2.63 0.75,-4.77 1.92,-6.1 0.69,-1.22 1.99,-2.06 3.88,-2.56 l 282.36,-75.61 c 1.9,-0.5 3.44,-0.42 4.65,0.28 1.68,0.58 3.13,2.21 4.71,4.33 1.11,2.23 2.81,4.83 4.31,8.5 1.14,4.27 2.88,8.88 4.53,15.03 1.52,5.69 2.45,11.02 3.45,14.81 0.54,3.91 0.36,7 0.52,9.5 -0.31,2.63 -0.75,4.79 -1.92,6.11 -0.7,1.19 -1.99,2.07 -3.89,2.57 z" /><path
         id="path94"
         style="fill:none;stroke:#ffffff;stroke-width:60;stroke-linecap:butt;stroke-linejoin:miter;stroke-miterlimit:4;stroke-dasharray:none;stroke-opacity:1"
         d="m 4061.57,2800.24 c -3.46,-0.24 -5.95,-0.56 -8.45,-1.35 -2.01,-0.34 -3.56,-1.71 -4.14,-2.65 -1.03,-0.92 -1.64,-2.35 -1.78,-4.31 l -6.97,-96.83 -248.42,17.86 c -1.97,0.14 -3.47,-0.24 -4.5,-1.14 -1.55,-0.88 -2.67,-2.77 -3.81,-5.14 -0.68,-2.43 -1.86,-5.27 -2.63,-9.16 -0.78,-3.88 -1.17,-9.25 -1.59,-15.13 -0.46,-6.35 -0.8,-11.25 -0.63,-15.68 0.21,-3.94 0.97,-6.96 1.3,-9.42 0.78,-2.52 1.62,-4.55 3.03,-5.61 0.89,-1.07 2.33,-1.66 4.3,-1.8 l 280.22,-20.14 c 7.32,-0.53 12.36,1.08 15.54,4.28 3.67,3.19 5.46,7.48 5.85,12.86 l 10.15,141.33 c 0.14,1.97 -0.23,3.45 -1.15,4.51 -0.89,1.05 -2.3,2.13 -4.19,3.25 -2.38,1.14 -4.8,1.82 -8.17,2.55 -3.39,0.73 -7.3,1.02 -12.19,1.36 -4.89,0.36 -8.81,0.64 -11.77,0.36 z" /><path
         id="path96"
         style="fill:none;stroke:#ffffff;stroke-width:60;stroke-linecap:butt;stroke-linejoin:miter;stroke-miterlimit:4;stroke-dasharray:none;stroke-opacity:1"
         d="m 3782.07,3028.84 c -2.7,-1.52 -4.92,-2.96 -6.57,-4.75 -1.18,-1.72 -2.24,-3.93 -2.57,-7.47 -0.42,-3.08 -0.06,-7.52 0.94,-12.8 0.63,-5.87 2,-13.09 3.74,-22.25 1.56,-8.17 2.75,-14.44 4.15,-19.16 0.92,-4.81 2.13,-8.57 3.64,-11.28 1.42,-2.22 3.31,-4.36 4.96,-5.03 1.71,-1.17 4.31,-1.67 6.89,-2.19 l 287.95,-42.43 c 6.14,-0.82 10.66,-0.96 14.12,-0.78 2.99,0.06 5.79,1.09 6.94,2.81 1.56,2.28 2.45,5.45 2.2,9.4 -0.81,4.33 -1.35,9.72 -2.73,16.94 -1.28,6.74 -2.39,12.52 -3.58,16.27 -1.31,4.25 -2.34,7.04 -3.78,9.26 -0.92,2.32 -2.66,3.49 -4.28,4.17 -1.72,1.18 -3.73,1.29 -5.84,1.9 l -63.29,7.39 -21.9,115.06 57.37,31.37 c 1.83,0.86 3.6,2.18 4.36,3.33 1.27,1.25 1.96,2.86 1.97,5.36 0.52,2.59 0.36,6.06 -0.47,10.39 -0.45,4.91 -1.64,11.17 -3.11,18.88 -1.47,7.7 -2.65,13.95 -3.95,18.18 -1.31,4.25 -2.83,6.96 -5.11,8.52 -1.81,1.64 -4.33,1.67 -7.59,0.55 -3.28,-1.13 -7.33,-3.39 -12.85,-5.96 z m 176.27,30.57 16.22,-85.21 -137.56,17.7 -0.1,0.48 z" /><path
         id="path98"
         style="fill:none;stroke:#ffffff;stroke-width:60;stroke-linecap:butt;stroke-linejoin:miter;stroke-miterlimit:4;stroke-dasharray:none;stroke-opacity:1"
         d="m 3645.78,3373.08 c -1.73,-0.89 -2.81,-2 -3.23,-3.3 -0.86,-1.55 -1.07,-3.31 -0.83,-5.92 0.69,-2.41 1.37,-5.91 2.5,-9.19 1.36,-3.7 3.81,-8.48 6.48,-13.72 2.68,-5.22 5.14,-10.01 7.36,-13.28 2.22,-3.25 4.66,-5.86 6.19,-7.81 2,-1.73 3.55,-2.59 5.3,-2.78 1.31,-0.44 2.84,-0.2 4.58,0.69 l 165.51,84.78 c 9.58,4.92 18.97,8.06 28.16,9.47 8.73,1.18 17.28,0.61 24.95,-1.5 7.25,-2.33 14.52,-5.79 20.69,-11.41 6.17,-5.63 11.51,-12.78 16.19,-21.94 4.25,-8.26 6.95,-16.78 8.14,-25.53 0.95,-8.31 0.15,-16.41 -2.63,-23.87 -2.55,-7.91 -7.06,-15.18 -14,-22.04 -6.51,-6.62 -15.42,-12.82 -26.31,-18.42 l -162.47,-83.22 c -1.73,-0.89 -2.83,-2 -3.23,-3.31 -0.86,-1.55 -0.85,-3.73 -0.61,-6.36 0.46,-1.97 1.15,-5.45 2.5,-9.17 1.36,-3.7 3.57,-8.06 6.48,-13.72 2.67,-5.23 5.13,-10.03 7.36,-13.3 2.22,-3.25 4.66,-5.85 6.19,-7.79 2,-1.74 3.54,-2.6 5.29,-2.8 1.32,-0.44 2.85,-0.19 4.58,0.7 l 167.27,85.69 c 17.42,8.92 31.31,19.35 41.94,30.81 10.82,12.16 17.92,25.14 21.93,38.74 3.82,14.05 4.32,29.15 1.75,44.89 -2.78,16.17 -8.62,32.97 -17.33,49.95 -9.59,18.74 -20.48,33.5 -32.62,45.42 -11.94,11.49 -25.16,20.11 -39.2,25.02 -14.07,4.89 -29.18,6.5 -45.14,4.36 -15.52,-1.89 -32.1,-7.09 -49.1,-15.8 z" /><path
         id="path100"
         style="fill:none;stroke:#ffffff;stroke-width:60;stroke-linecap:butt;stroke-linejoin:miter;stroke-miterlimit:4;stroke-dasharray:none;stroke-opacity:1"
         d="m 3493.16,3564.64 c -2.25,-2.64 -3.77,-4.61 -4.97,-6.95 -0.83,-2.05 -1.3,-3.74 -1.01,-4.8 0.23,-1.75 0.51,-2.81 1.48,-3.91 l 96.09,-109.76 c 3.55,-4.05 7.55,-6.39 12.38,-6.72 4.47,-0.64 9.44,1.11 14.97,5.94 l 210.67,184.45 c 1.47,1.28 2.25,2.63 2.72,4.33 0.09,1.39 -0.1,3.83 -1.35,5.98 -0.87,2.49 -2.06,5.36 -4.28,8.61 -2.9,3.32 -5.75,7.33 -9.93,12.13 -3.88,4.42 -7.8,8.14 -10.38,11.08 -2.94,2.64 -5.95,4.56 -8.3,5.76 -1.96,1.52 -4.04,1.66 -5.42,1.75 -1.76,-0.23 -3.19,-0.84 -4.65,-2.12 l -86.55,-75.78 -62.56,71.45 c -0.97,1.11 -2.32,1.89 -3.69,1.98 -1.02,0.41 -2.77,0.19 -5.25,-0.7 -2.11,-0.55 -4.28,-1.78 -7.17,-3.69 -2.55,-1.56 -5.49,-4.14 -9.17,-7.36 -3.69,-3.23 -6.63,-5.81 -8.88,-8.43 -1.91,-2.3 -3.42,-4.29 -4.25,-6.32 -0.83,-2.01 -1.28,-3.72 -1.37,-5.09 0.26,-1.06 0.87,-2.5 1.84,-3.61 l 62.56,-71.45 -62.61,-54.82 -66.75,76.25 c -0.97,1.1 -1.98,1.5 -3.69,1.97 -1.39,0.1 -3.14,-0.14 -5.25,-0.68 -2.12,-0.55 -4.28,-1.8 -7.18,-3.69 -2.53,-1.58 -5.47,-4.16 -9.16,-7.38 -3.69,-3.23 -6.62,-5.81 -8.89,-8.42 z" /><g
         transform="scale(10)"
         id="g102"><text
           id="text106"
           style="font-variant:normal;font-weight:bold;font-size:48.99999619px;font-family:Calibri;-inkscape-font-specification:Calibri-Bold;writing-mode:lr-tb;fill:#231f20;fill-opacity:1;fill-rule:nonzero;stroke:none"
           transform="matrix(0.686345,0.727276,0.727276,-0.686345,364.133,183.385)"><tspan
             id="tspan104"
             y="0"
             x="0">S</tspan></text>
<text
           id="text110"
           style="font-variant:normal;font-weight:bold;font-size:49.00002289px;font-family:Calibri;-inkscape-font-specification:Calibri-Bold;writing-mode:lr-tb;fill:#231f20;fill-opacity:1;fill-rule:nonzero;stroke:none"
           transform="matrix(0.473255,0.880926,0.880926,-0.473255,385.802,205.874)"><tspan
             id="tspan108"
             y="0"
             x="0">A</tspan></text>
<text
           id="text114"
           style="font-variant:normal;font-weight:bold;font-size:48.99998856px;font-family:Calibri;-inkscape-font-specification:Calibri-Bold;writing-mode:lr-tb;fill:#231f20;fill-opacity:1;fill-rule:nonzero;stroke:none"
           transform="matrix(0.257504,0.966277,0.966277,-0.257504,402.718,239.333)"><tspan
             id="tspan112"
             y="0"
             x="0">I</tspan></text>
<text
           id="text118"
           style="font-variant:normal;font-weight:bold;font-size:48.99999619px;font-family:Calibri;-inkscape-font-specification:Calibri-Bold;writing-mode:lr-tb;fill:#231f20;fill-opacity:1;fill-rule:nonzero;stroke:none"
           transform="matrix(0.0725463,0.997365,0.997365,-0.0725463,408.512,259.455)"><tspan
             id="tspan116"
             y="0"
             x="0">L</tspan></text>
<text
           id="text122"
           style="font-variant:normal;font-weight:bold;font-size:49.00000381px;font-family:Calibri;-inkscape-font-specification:Calibri-Bold;writing-mode:lr-tb;fill:#231f20;fill-opacity:1;fill-rule:nonzero;stroke:none"
           transform="matrix(-0.187273,0.982308,0.982308,0.187273,411.062,289.635)"><tspan
             id="tspan120"
             y="0"
             x="0">A</tspan></text>
<text
           id="text126"
           style="font-variant:normal;font-weight:bold;font-size:49.00001907px;font-family:Calibri;-inkscape-font-specification:Calibri-Bold;writing-mode:lr-tb;fill:#231f20;fill-opacity:1;fill-rule:nonzero;stroke:none"
           transform="matrix(-0.456219,0.889868,0.889868,0.456219,404.353,325.572)"><tspan
             id="tspan124"
             y="0"
             x="0">U</tspan></text>
<text
           id="text130"
           style="font-variant:normal;font-weight:bold;font-size:48.99998856px;font-family:Calibri;-inkscape-font-specification:Calibri-Bold;writing-mode:lr-tb;fill:#231f20;fill-opacity:1;fill-rule:nonzero;stroke:none"
           transform="matrix(-0.659669,0.751556,0.751556,0.659669,385.202,360.361)"><tspan
             id="tspan128"
             y="0"
             x="0">F</tspan></text>
<text
           id="text134"
           style="font-variant:normal;font-weight:bold;font-size:52px;font-family:Calibri;-inkscape-font-specification:Calibri-Bold;writing-mode:lr-tb;fill:#231f20;fill-opacity:1;fill-rule:nonzero;stroke:none"
           transform="matrix(1,0,0,-1,226.772,423.992)"><tspan
             id="tspan132"
             y="0"
             x="0 25.102303 50.05373 75.712433">1923</tspan></text>
</g><path
         id="path136"
         style="fill:#636060;fill-opacity:1;fill-rule:nonzero;stroke:none"
         d="m 2847.8,3819.09 c 0,31.25 0,103.56 -0.02,125.91 -16.71,15.76 -26.16,37.37 -26.16,60.35 0,45.37 36.91,82.29 82.29,82.29 45.37,0 82.28,-36.92 82.28,-82.29 0,-24.3 -21.57,-51.61 -31.73,-63.12 -0.03,-41 -0.07,-82 -0.11,-123 7.67,-0.03 15.34,-0.06 23,-0.09 7.62,45.77 41.68,190.26 168.29,195.53 70.45,0.01 121.24,-18.4 151.61,-54.72 38.26,-45.76 28.62,-102.27 28.19,-104.66 -0.84,-4.65 -3.83,-8.63 -8.06,-10.75 -4.22,-2.11 -9.21,-2.11 -13.44,0.01 -0.74,0.37 -74.25,36.5 -120.23,1.47 -50.53,-38.5 -34.97,-100.65 -34.28,-103.27 0.21,-0.24 76.37,-191.98 115.53,-284.29 41.23,-97.2 61.85,-291.82 1.74,-387.99 -48.3,-77.28 -211.24,-127.5 -275.39,-144.69 66.52,-66.53 133.05,-133.06 199.58,-199.58 4.29,-4.29 5.57,-10.75 3.25,-16.35 -2.32,-5.61 -7.79,-9.26 -13.86,-9.26 h -387.35 -360.8 c -6.07,0 -11.54,3.65 -13.86,9.26 -2.32,5.6 -1.04,12.06 3.25,16.35 66.53,66.52 133.06,133.05 199.58,199.58 -64.15,17.2 -227.09,67.41 -275.39,144.69 -60.11,96.17 -39.49,290.79 1.74,387.99 39.16,92.31 115.32,284.05 116.09,285.97 0.13,0.94 15.69,63.09 -34.84,101.59 -46.2,35.21 -119.48,-1.09 -120.21,-1.46 -4.23,-2.13 -9.22,-2.15 -13.45,-0.03 -4.24,2.11 -7.23,6.1 -8.07,10.76 -0.43,2.39 -10.07,58.9 28.19,104.66 30.37,36.32 81.16,54.73 150.98,54.73 127.15,-5.28 161.28,-149.77 168.92,-195.54 7.66,0.03 15.33,0.06 23,0.09 l -0.11,123 c -10.16,11.51 -31.73,38.82 -31.73,63.12 0,45.37 36.91,82.29 82.28,82.29 45.38,0 82.29,-36.92 82.29,-82.29 0,-23.03 -9.49,-44.68 -26.26,-60.45 0.06,-19.68 0.07,-93.99 0.08,-125.81 h 41.59 c 13.87,0 27.74,0 41.6,0" /><path
         id="path138"
         style="fill:none;stroke:#ffffff;stroke-width:30;stroke-linecap:round;stroke-linejoin:round;stroke-miterlimit:4;stroke-dasharray:none;stroke-opacity:1"
         d="m 2847.8,3819.09 c 0,31.25 0,103.56 -0.02,125.91 -16.71,15.76 -26.16,37.37 -26.16,60.35 0,45.37 36.91,82.29 82.29,82.29 45.37,0 82.28,-36.92 82.28,-82.29 0,-24.3 -21.57,-51.61 -31.73,-63.12 -0.03,-41 -0.07,-82 -0.11,-123 7.67,-0.03 15.34,-0.06 23,-0.09 7.62,45.77 41.68,190.26 168.29,195.53 70.45,0.01 121.24,-18.4 151.61,-54.72 38.26,-45.76 28.62,-102.27 28.19,-104.66 -0.84,-4.65 -3.83,-8.63 -8.06,-10.75 -4.22,-2.11 -9.21,-2.11 -13.44,0.01 -0.74,0.37 -74.25,36.5 -120.23,1.47 -50.53,-38.5 -34.97,-100.65 -34.28,-103.27 0.21,-0.24 76.37,-191.98 115.53,-284.29 41.23,-97.2 61.85,-291.82 1.74,-387.99 -48.3,-77.28 -211.24,-127.5 -275.39,-144.69 66.52,-66.53 133.05,-133.06 199.58,-199.58 4.29,-4.29 5.57,-10.75 3.25,-16.35 -2.32,-5.61 -7.79,-9.26 -13.86,-9.26 h -387.35 -360.8 c -6.07,0 -11.54,3.65 -13.86,9.26 -2.32,5.6 -1.04,12.06 3.25,16.35 66.53,66.52 133.06,133.05 199.58,199.58 -64.15,17.2 -227.09,67.41 -275.39,144.69 -60.11,96.17 -39.49,290.79 1.74,387.99 39.16,92.31 115.32,284.05 116.09,285.97 0.13,0.94 15.69,63.09 -34.84,101.59 -46.2,35.21 -119.48,-1.09 -120.21,-1.46 -4.23,-2.13 -9.22,-2.15 -13.45,-0.03 -4.24,2.11 -7.23,6.1 -8.07,10.76 -0.43,2.39 -10.07,58.9 28.19,104.66 30.37,36.32 81.16,54.73 150.98,54.73 127.15,-5.28 161.28,-149.77 168.92,-195.54 7.66,0.03 15.33,0.06 23,0.09 l -0.11,123 c -10.16,11.51 -31.73,38.82 -31.73,63.12 0,45.37 36.91,82.29 82.28,82.29 45.38,0 82.29,-36.92 82.29,-82.29 0,-23.03 -9.49,-44.68 -26.26,-60.45 0.06,-19.68 0.07,-93.99 0.08,-125.81 h 41.59 c 13.87,0 27.74,0 41.6,0 z" /><path
         id="path140"
         style="fill:#ffffff;fill-opacity:1;fill-rule:nonzero;stroke:none"
         d="m 2862.66,3673.7 0.14,-591.02 h -113.19 l 0.14,591.02 h 56.45 56.46" /><path
         id="path142"
         style="fill:none;stroke:#ffffff;stroke-width:30;stroke-linecap:square;stroke-linejoin:miter;stroke-miterlimit:4;stroke-dasharray:none;stroke-opacity:1"
         d="m 2862.66,3673.7 0.14,-591.02 h -113.19 l 0.14,591.02 h 56.45 z" /><path
         id="path144"
         style="fill:#ffffff;fill-opacity:1;fill-rule:nonzero;stroke:none"
         d="m 2939.34,3081.26 c 0,0 141.73,-14.17 204.09,87.87 62.37,102.05 -28.34,283.47 -28.34,283.47 l -96.38,221.1 h -79.24 l -0.13,-592.44" /><path
         id="path146"
         style="fill:none;stroke:#ffffff;stroke-width:30;stroke-linecap:square;stroke-linejoin:miter;stroke-miterlimit:4;stroke-dasharray:none;stroke-opacity:1"
         d="m 2939.34,3081.26 c 0,0 141.73,-14.17 204.09,87.87 62.37,102.05 -28.34,283.47 -28.34,283.47 l -96.38,221.1 h -79.24 z" /><path
         id="path148"
         style="fill:#ffffff;fill-opacity:1;fill-rule:nonzero;stroke:none"
         d="m 2673.07,3081.26 c 0,0 -141.73,-14.17 -204.09,87.87 -62.37,102.05 28.34,283.47 28.34,283.47 l 96.38,221.1 h 79.24 l 0.13,-592.44" /><path
         id="path150"
         style="fill:none;stroke:#ffffff;stroke-width:30;stroke-linecap:square;stroke-linejoin:miter;stroke-miterlimit:4;stroke-dasharray:none;stroke-opacity:1"
         d="m 2673.07,3081.26 c 0,0 -141.73,-14.17 -204.09,87.87 -62.37,102.05 28.34,283.47 28.34,283.47 l 96.38,221.1 h 79.24 z" /><path
         id="path152"
         style="fill:none;stroke:#ffffff;stroke-width:180;stroke-linecap:round;stroke-linejoin:round;stroke-miterlimit:4;stroke-dasharray:none;stroke-opacity:1"
         d="m 2824.72,4852.91 c 0,0 -806.45,-5.67 -1163.62,187.09 -323.15,-385.51 -668.975,-799.37 -668.975,-799.37 0,0 374.175,-260.79 362.835,-640.63 C 1343.62,3220.16 1056.82,3021.73 984.789,2976.38 982.125,2868.66 873.07,1916.22 1655.43,1360.63 2556.85,833.379 2755.28,734.172 2819.54,646.301 c 49.12,82.199 262.68,187.078 1164.1,714.329 782.36,555.59 673.31,1508.03 670.64,1615.75 -72.03,45.35 -358.83,243.78 -370.17,623.62 -11.34,379.84 362.84,640.63 362.84,640.63 0,0 -345.83,413.86 -668.98,799.37 C 3620.8,4847.24 2814.35,4852.91 2814.35,4852.91" /><path
         id="path154"
         style="fill:none;stroke:#231f20;stroke-width:90;stroke-linecap:round;stroke-linejoin:round;stroke-miterlimit:4;stroke-dasharray:none;stroke-opacity:1"
         d="m 1661.1,5040 c -323.15,-385.51 -668.975,-799.37 -668.975,-799.37 0,0 374.175,-260.79 362.835,-640.63 C 1343.62,3220.16 1056.82,3021.73 984.789,2976.38 982.125,2868.66 873.07,1916.22 1655.43,1360.63 2556.85,833.379 2755.28,734.172 2819.54,646.301 c 49.12,82.199 262.68,187.078 1164.1,714.329 782.36,555.59 673.31,1508.03 670.64,1615.75 -72.03,45.35 -358.83,243.78 -370.17,623.62 -11.34,379.84 362.84,640.63 362.84,640.63 0,0 -345.83,413.86 -668.98,799.37 -357.17,-192.76 -1158.43,-187.09 -1158.43,-187.09 0,0 -801.27,-5.67 -1158.44,187.09 z" /></g></g></svg>