<?xml version="1.0" standalone="no"?>
<!DOCTYPE svg PUBLIC "-//W3C//DTD SVG 20010904//EN"
 "http://www.w3.org/TR/2001/REC-SVG-20010904/DTD/svg10.dtd">
<svg version="1.0" xmlns="http://www.w3.org/2000/svg"
 width="700.000000pt" height="700.000000pt" viewBox="0 0 700.000000 700.000000"
 preserveAspectRatio="xMidYMid meet">
<metadata>
Created by potrace 1.14, written by Peter Selinger 2001-2017
</metadata>
<g transform="translate(0.000000,700.000000) scale(0.100000,-0.100000)"
fill="#000000" stroke="none">
<path d="M2023 6331 c-12 -3 -32 -15 -45 -27 -25 -23 -31 -30 -169 -194 -53
-63 -228 -272 -388 -464 -161 -192 -297 -361 -303 -375 -5 -14 -7 -39 -4 -56
6 -29 48 -85 65 -85 14 0 169 -159 219 -226 57 -76 112 -183 138 -269 25 -80
25 -263 1 -355 -50 -187 -169 -355 -347 -487 -36 -27 -71 -60 -78 -75 -21 -44
-19 -514 3 -623 3 -11 7 -38 10 -60 67 -483 295 -947 615 -1249 130 -122 232
-195 440 -316 1092 -634 1118 -650 1208 -736 70 -68 117 -65 195 10 74 72 137
111 957 586 457 264 529 312 672 449 246 233 451 568 542 884 87 304 112 489
110 832 -1 214 -9 248 -67 283 -58 35 -154 121 -210 189 -201 247 -239 556
-100 813 64 118 162 236 278 333 33 27 65 59 72 71 16 27 16 71 1 99 -9 18
-399 490 -418 507 -3 3 -70 84 -150 180 -80 96 -147 177 -150 180 -3 3 -36 42
-73 87 -91 110 -124 120 -226 69 -145 -74 -469 -146 -771 -171 -41 -4 -86 -8
-100 -11 -134 -21 -751 -21 -937 1 -21 2 -87 9 -148 15 -301 31 -588 97 -735
170 -45 22 -80 29 -107 21z"/>
</g>
</svg>
